<?xml version="1.0" standalone="no"?>
<!DOCTYPE svg PUBLIC "-//W3C//DTD SVG 1.1//EN" "http://www.w3.org/Graphics/SVG/1.1/DTD/svg11.dtd" >
<svg xmlns="http://www.w3.org/2000/svg" xmlns:xlink="http://www.w3.org/1999/xlink" version="1.1">
<metadata></metadata>
<defs>
<font id="lydian_btroman" horiz-adv-x="1110" >
<font-face units-per-em="2048" ascent="1556" descent="-492" />
<missing-glyph horiz-adv-x="555" />
<glyph horiz-adv-x="0" />
<glyph unicode="&#xd;" horiz-adv-x="555" />
<glyph unicode=" "  horiz-adv-x="555" />
<glyph unicode="&#x09;" horiz-adv-x="555" />
<glyph unicode="&#xa0;" horiz-adv-x="555" />
<glyph unicode="!" horiz-adv-x="602" d="M160 102q38 33 73.5 68t67.5 74q36 -42 71 -77t68 -65q-31 -28 -64.5 -62t-74.5 -79q-34 37 -69 72.5t-72 68.5zM193 1364l223 37q-25 -285 -42.5 -550.5t-27.5 -516.5l-94 -19q-6 398 -21 656t-38 393z" />
<glyph unicode="&#x22;" horiz-adv-x="614" d="M90 881v555h139v-555h-139zM385 881v555h139v-555h-139z" />
<glyph unicode="#" horiz-adv-x="1575" d="M88 449l53 147h310l92 262h-330l51 146h332l162 454h166l-162 -454h256l164 454h164l-160 -454h301l-51 -146h-303l-93 -262h322l-51 -147h-322l-162 -453h-165l161 453h-258l-162 -453h-165l159 453h-309zM616 594h261l92 264h-260z" />
<glyph unicode="$" d="M207 170l129 174q44 -45 90 -72t96 -36v380q-167 66 -240 141.5t-73 180.5q0 65 22.5 123t75.5 127q73 94 127.5 144t87.5 55l-6 98l90 16l-4 -106h16q93 0 168 -35.5t129 -106.5l-141 -155q-32 43 -76 70t-95 36l-1 -379q196 -75 267 -146.5t71 -184.5q0 -71 -60 -177.5 t-167 -222.5q-22 -23 -50 -38t-61 -21q0 -34 2.5 -70t7.5 -71l-100 -23q6 61 8 96t2 60h-8q-91 0 -168 35.5t-139 107.5zM346 1069q0 -74 41 -125t135 -92v360h-16q-43 0 -80.5 -13.5t-67.5 -39.5q-6 -24 -9 -47t-3 -43zM602 225h16q56 0 100.5 18t76.5 52v27 q0 98 -46 159.5t-147 100.5v-357z" />
<glyph unicode="%" horiz-adv-x="1626" d="M72 967q0 97 23.5 183.5t70.5 162.5l188 157q13 5 26 7t28 2q134 0 215.5 -96.5t81.5 -256.5q0 -125 -39 -236t-109 -188l-139 -114q-10 -7 -23 -10t-33 -3q-129 0 -209.5 107.5t-80.5 284.5zM201 1049q0 -154 71 -251.5t181 -97.5q12 0 42 7q4 1 7 2q37 65 55 142.5 t18 168.5q0 160 -63 252t-170 92q-18 0 -35 -3t-33 -9q-36 -50 -54.5 -127.5t-18.5 -175.5zM340 -39l856 1518h76l-856 -1518h-76zM924 354q0 97 23 182.5t71 161.5l188 160q13 4 26 6t28 2q134 0 215 -96.5t81 -255.5q0 -125 -38.5 -236t-108.5 -188l-138 -115 q-12 -6 -27.5 -10t-29.5 -4q-129 0 -209.5 108.5t-80.5 284.5zM1053 436q0 -153 71 -250.5t181 -97.5q12 0 43 7q4 1 6 1q37 66 55 143t18 169q0 159 -63 251.5t-170 92.5q-18 0 -35 -3.5t-33 -9.5q-36 -50 -54.5 -127.5t-18.5 -175.5z" />
<glyph unicode="&#x26;" horiz-adv-x="1067" d="M100 358q0 137 84.5 253t245.5 202q-121 40 -182.5 106.5t-61.5 157.5q0 70 74 193l15 25q44 74 153.5 129t216.5 55q62 0 119.5 -20.5t107.5 -59.5l-143 -182q-51 49 -121.5 74.5t-154.5 25.5q-63 0 -85 -16.5t-22 -61.5q0 -122 130 -194t378 -89l-119 -186q-4 0 -15 1 q-61 4 -103 9q-180 -22 -263.5 -85.5t-83.5 -178.5q0 -162 113.5 -265.5t292.5 -103.5q70 0 95.5 14.5t25.5 55.5q0 100 -82.5 162.5t-218.5 62.5q-29 0 -44 -1t-28 -3l100 152h496l-90 -150h-66q21 -17 31 -47t10 -74q0 -61 -37 -132t-102 -130q-50 -45 -120 -70.5 t-146 -25.5q-162 0 -281 117.5t-119 279.5z" />
<glyph unicode="'" horiz-adv-x="317" d="M90 881v555h139v-555h-139z" />
<glyph unicode="(" horiz-adv-x="545" d="M125 467q0 279 72 535.5t215 482.5l88 -43q-107 -233 -161 -473.5t-54 -485.5q0 -255 53.5 -494.5t159.5 -455.5l-90 -47q-142 224 -212.5 469.5t-70.5 511.5z" />
<glyph unicode=")" horiz-adv-x="545" d="M47 -469q107 233 160 472.5t53 485.5q0 258 -53 496t-158 455l88 45q142 -225 212.5 -467.5t70.5 -505.5q0 -284 -72 -542t-215 -484z" />
<glyph unicode="*" horiz-adv-x="1024" d="M223 1059l213 112l-211 111l47 82l201 -127l-8 242h94l-10 -242l205 129l47 -82l-213 -113l211 -110l-47 -82l-201 127l8 -242h-94l8 242l-203 -129z" />
<glyph unicode="+" horiz-adv-x="1706" d="M254 541v139h528v541h142v-541h528v-139h-528v-541h-142v541h-528z" />
<glyph unicode="," horiz-adv-x="555" d="M139 135l137 158q63 -43 94 -91t31 -102q0 -59 -48 -131.5t-169 -189.5l-24 24q49 56 69.5 95t20.5 73q0 39 -25 76.5t-86 87.5z" />
<glyph unicode="-" horiz-adv-x="502" d="M43 410l57 143h361l-58 -143h-360z" />
<glyph unicode="." horiz-adv-x="555" d="M137 102q36 30 70 65t69 77q33 -37 69 -73t73 -69q-37 -33 -72.5 -68.5t-69.5 -72.5q-41 45 -74 79t-65 62z" />
<glyph unicode="/" horiz-adv-x="750" d="M14 -190l645 1669h76l-645 -1669h-76z" />
<glyph unicode="0" d="M51 612q0 173 43.5 322.5t130.5 277.5q71 75 139 137.5t133 114.5q22 8 43.5 11.5t45.5 3.5q202 0 336.5 -173t134.5 -442q0 -228 -49.5 -400.5t-149.5 -293.5q-42 -54 -98 -102t-130 -93q-32 -7 -60 -10.5t-48 -3.5q-217 0 -344 174.5t-127 476.5zM227 758 q0 -291 118 -449.5t333 -158.5q39 0 64.5 6t43.5 20q47 81 72 212t25 294q0 273 -121 440.5t-311 167.5q-19 0 -38 -4t-48 -14q-68 -103 -103 -233.5t-35 -280.5z" />
<glyph unicode="1" d="M438 0q8 179 12.5 446.5t4.5 608.5q0 76 -1.5 168t-4.5 198l221 58q-6 -254 -9.5 -475t-3.5 -410q0 -182 3 -323.5t10 -270.5h-232z" />
<glyph unicode="2" d="M80 0l55 170q139 42 227.5 74.5t112.5 50.5t54.5 54.5t58.5 82.5q59 95 90 198.5t31 207.5q0 215 -105.5 337.5t-288.5 122.5q-69 0 -121 -15.5t-94 -47.5l-12 12l158 176q18 21 81.5 38.5t137.5 17.5q193 0 313.5 -136t120.5 -356q0 -223 -119 -433.5t-344 -383.5h484 l-62 -170h-778z" />
<glyph unicode="3" d="M162 129l170 158q68 -81 147 -123.5t158 -42.5q24 0 41.5 4.5t31.5 13.5q20 26 30 57.5t10 67.5q0 169 -116.5 284.5t-289.5 115.5q-25 0 -54.5 -5t-59.5 -14l-11 12l174 179q20 6 42 9t46 3q37 0 69 -5t58 -16q32 49 49 104t17 109q0 137 -67.5 210t-192.5 73 q-49 0 -97 -13.5t-98 -41.5l-8 16l180 166q45 14 86.5 21.5t79.5 7.5q150 0 244 -90t94 -232q0 -90 -58.5 -181.5t-166.5 -170.5q122 -51 194 -159.5t72 -239.5q0 -117 -80 -214.5t-287 -224.5q-13 -3 -28 -4.5t-45 -1.5q-107 0 -193.5 43.5t-140.5 124.5z" />
<glyph unicode="4" d="M74 477q199 322 344 570t215 385l196 47q-1 -82 -2.5 -222.5t-1.5 -312.5q0 -8 1 -116.5t1 -209.5h170l-45 -141h-125q0 -101 2.5 -218t7.5 -259h-216v25q12 310 12 452h-559zM231 618h402v689z" />
<glyph unicode="5" d="M156 43l139 197q57 -41 115.5 -59.5t132.5 -18.5q120 0 177.5 57.5t57.5 177.5q0 149 -101 246.5t-255 97.5q-55 0 -107 -11.5t-106 -35.5v748h643l-33 -172h-520v-404q68 33 131 49.5t123 16.5q173 0 282 -104.5t109 -272.5q0 -122 -62 -229.5t-253 -284.5 q-42 -38 -104 -59t-136 -21q-64 0 -123 21t-110 61z" />
<glyph unicode="6" d="M98 551q0 201 40.5 369t111.5 270q28 39 109 114.5t186 157.5q22 9 45.5 13t50.5 4q97 0 182.5 -42.5t161.5 -127.5l-129 -191q-89 73 -184.5 114.5t-173.5 41.5q-29 0 -54 -5t-49 -16q-52 -86 -82.5 -230t-36.5 -333q63 63 121 117.5t107 95.5q29 17 66 26t79 9 q160 0 255 -108t95 -289q0 -98 -25.5 -179.5t-70.5 -130.5q-55 -59 -135 -124t-184 -134q-26 -6 -52.5 -9t-52.5 -3q-175 0 -278 157.5t-103 432.5zM283 633q9 -233 98 -358t244 -125q45 0 82 9t69 27q29 46 43.5 100t14.5 117q0 153 -86 244.5t-228 91.5q-64 0 -124.5 -27 t-112.5 -79z" />
<glyph unicode="7" d="M170 1270l47 172h756l-451 -1471l-125 -10l406 1309h-633z" />
<glyph unicode="8" d="M162 303q0 90 46.5 165t180.5 185q-106 54 -158.5 142t-52.5 211q0 115 70 215.5t241 226.5q28 16 61.5 23.5t78.5 7.5q146 0 230.5 -84t84.5 -230q0 -101 -60 -190.5t-202 -194.5q142 -55 208 -129.5t66 -179.5q0 -57 -16.5 -113.5t-50.5 -113.5q-38 -50 -103.5 -114.5 t-168.5 -153.5q-24 -8 -49 -11.5t-54 -3.5q-158 0 -255 94.5t-97 247.5zM334 1155q0 -110 73.5 -196t225.5 -152q55 52 82.5 111t27.5 124q0 121 -65 187.5t-182 66.5q-96 0 -129 -29.5t-33 -111.5zM342 420q0 -118 84.5 -190t222.5 -72q81 0 104 26t23 123q0 103 -73 174.5 t-263 147.5q-48 -44 -73 -97t-25 -112z" />
<glyph unicode="9" d="M109 881q0 84 18.5 166t44.5 124q32 52 273 244l65 51q17 7 38.5 10t47.5 3q201 0 307.5 -156t106.5 -449q0 -198 -33 -352.5t-98 -259.5q-42 -50 -113.5 -117.5t-183.5 -162.5q-23 -11 -49 -16t-58 -5q-91 0 -176.5 41.5t-157.5 120.5l125 196q95 -72 185 -110.5 t165 -38.5q43 0 78.5 10t44.5 22q41 60 67.5 211t28.5 348q-132 -156 -209 -207.5t-161 -51.5q-161 0 -258.5 103.5t-97.5 275.5zM272 1051q0 -161 84.5 -255t227.5 -94q76 0 142 31.5t103 85.5q-26 236 -114 354.5t-238 118.5q-50 0 -89 -11.5t-71 -35.5 q-22 -40 -33.5 -88.5t-11.5 -105.5z" />
<glyph unicode=":" horiz-adv-x="555" d="M137 102q36 30 70 65t69 77q33 -37 69 -73t73 -69q-37 -33 -72.5 -68.5t-69.5 -72.5q-41 45 -74 79t-65 62zM137 803q36 30 70 64.5t69 76.5q33 -37 69 -73t73 -68q-45 -42 -79 -75t-63 -64q-33 36 -67.5 70.5t-71.5 68.5z" />
<glyph unicode=";" horiz-adv-x="555" d="M137 803q36 30 70 64.5t69 76.5q33 -37 69 -73t73 -68q-45 -42 -79 -75t-63 -64q-33 36 -67.5 70.5t-71.5 68.5zM139 135l137 158q63 -43 94 -91t31 -102q0 -59 -48 -131.5t-169 -189.5l-24 24q49 56 69.5 95t20.5 73q0 39 -25 76.5t-86 87.5z" />
<glyph unicode="&#x3c;" horiz-adv-x="1706" d="M264 547v129l1178 483v-153l-969 -396l969 -393v-154z" />
<glyph unicode="=" horiz-adv-x="1706" d="M254 342v139h1198v-139h-1198zM254 739v140h1198v-140h-1198z" />
<glyph unicode="&#x3e;" horiz-adv-x="1706" d="M264 63v154l971 393l-971 396v153l1178 -483v-129z" />
<glyph unicode="?" horiz-adv-x="854" d="M78 1202l162 166q46 20 94.5 30.5t95.5 10.5q155 0 252.5 -88.5t97.5 -226.5q0 -146 -185 -357l-18 -21l-7 -8q-117 -134 -117 -233q0 -25 3.5 -46t10.5 -37l-191 -76q-3 17 -4.5 32.5t-1.5 28.5q0 92 151 292q48 65 75 101q38 54 58.5 111t20.5 110q0 116 -71 191 t-178 75q-62 0 -117.5 -19t-110.5 -60zM254 102q38 33 73.5 68t67.5 74q37 -42 71.5 -77t68.5 -65q-32 -28 -65 -62t-75 -79q-34 37 -69 72.5t-72 68.5z" />
<glyph unicode="@" horiz-adv-x="2048" d="M106 522q0 165 52 313t151 269q146 178 351.5 270t455.5 92q163 0 310 -45t253 -127q130 -100 197.5 -231t67.5 -283q0 -175 -63.5 -315t-184.5 -236q-68 -54 -149.5 -83t-166.5 -29q-99 0 -149.5 39.5t-50.5 117.5v19q-55 -89 -129 -131.5t-172 -42.5q-153 0 -233.5 85 t-80.5 247q0 235 138 394t339 159q85 0 145.5 -37.5t96.5 -112.5l57 115h132l-146 -576q-4 -16 -6 -31t-2 -28q0 -46 25.5 -70t74.5 -24q48 0 102.5 26.5t106.5 75.5q80 76 125 186.5t45 233.5q0 259 -190.5 420t-499.5 161q-133 0 -246 -28t-211 -86q-191 -114 -296 -299.5 t-105 -409.5q0 -177 61.5 -308t192.5 -230q100 -77 236.5 -118.5t287.5 -41.5q169 0 328.5 49t292.5 141l55 -82q-148 -111 -314.5 -167t-349.5 -56q-190 0 -348 47t-280 140q-154 118 -230 274t-76 354zM725 446q0 -105 48.5 -162t137.5 -57q97 0 174.5 69t104.5 179 l59 236q-17 88 -68.5 136t-129.5 48q-138 0 -232 -130t-94 -319z" />
<glyph unicode="A" horiz-adv-x="1190" d="M-4 -12q92 243 160 426t90 245l215 637l-58 123l220 60q29 -82 65.5 -179t112.5 -292l203 -525q36 -95 84 -210t106 -250l-229 -48l-183 508h-477l-155 -483zM350 621h383l-207 538z" />
<glyph unicode="B" d="M127 0q7 155 10.5 333t3.5 384q0 205 -3.5 385t-10.5 340q137 4 245.5 6t143.5 2q132 0 209.5 -12.5t122.5 -40.5q71 -44 109 -110.5t38 -147.5q0 -121 -74 -217t-221 -164q158 -40 242 -129t84 -217q0 -189 -153.5 -305.5t-405.5 -116.5q-8 0 -46 2q-152 7 -294 8z M350 121q78 -22 140 -33.5t102 -11.5q12 0 24.5 1.5t30.5 4.5q76 51 116 124.5t40 162.5q0 139 -114 220t-312 81h-27v-549zM350 692l131 105q35 0 74 -5t80 -14q78 50 118 119.5t40 153.5q0 132 -88.5 205t-249.5 73q-25 0 -51 -1.5t-53 -4.5z" />
<glyph unicode="C" horiz-adv-x="1204" d="M57 645q0 209 88 377.5t258 288.5q130 92 227.5 130t198.5 38q88 0 169.5 -24.5t156.5 -74.5l-145 -174q-75 47 -156 69.5t-176 22.5q-90 0 -165.5 -17.5t-106.5 -43.5q-82 -65 -129.5 -187.5t-47.5 -269.5q0 -278 173 -453t448 -175q89 0 167 24.5t144 73.5l31 -39 q-28 -20 -79 -57q-263 -193 -404 -193q-298 0 -475 186t-177 498z" />
<glyph unicode="D" horiz-adv-x="1352" d="M115 0q6 138 9 305.5t3 411.5q0 243 -3 413t-9 312q16 -1 37 -1.5t61 -0.5q68 0 189.5 5t177.5 5q335 0 522.5 -161.5t187.5 -448.5q0 -204 -82 -376.5t-254 -328.5q-76 -69 -183 -107t-222 -38q-25 0 -107.5 5t-140.5 5h-186zM346 725q0 -112 1 -238.5t3 -336.5 q62 -14 116.5 -20.5t104.5 -6.5q275 0 400 115t125 370q0 344 -181 534.5t-507 190.5q-23 0 -35 -0.5t-23 -1.5q-2 -250 -3 -375.5t-1 -230.5z" />
<glyph unicode="E" horiz-adv-x="930" d="M115 0q6 138 9 305.5t3 411.5q0 243 -3 413t-9 312q240 0 415 2t310 6l-66 -145q-36 4 -83 6t-154 2l-187 -1q-2 -12 -3 -35t-1 -89v-146v-241h96q107 0 203.5 1.5t183.5 3.5l-67 -138q-52 3 -95 4.5t-79 1.5h-242v-383q0 -78 1 -107t3 -46q22 -2 45.5 -2t67.5 -1h98 q130 0 189.5 2.5t105.5 7.5l-70 -155q-89 5 -211 7.5t-270 2.5h-190z" />
<glyph unicode="F" horiz-adv-x="909" d="M115 -10q6 141 9 312t3 415q0 243 -3 413t-9 312q249 0 429 2t316 6l-65 -145q-37 4 -84 6t-154 2h-202q-3 -84 -5 -196.5t-4 -315.5h96q107 0 203.5 1.5t183.5 3.5l-67 -138q-52 3 -95 4.5t-79 1.5h-242q0 -153 3.5 -317.5t10.5 -355.5z" />
<glyph unicode="G" horiz-adv-x="1290" d="M61 643q0 222 89.5 388t277.5 292q135 92 217 124t162 32q111 0 208 -33.5t185 -102.5l-139 -167q-80 62 -174.5 92t-206.5 30q-91 0 -167 -17.5t-107 -43.5q-82 -65 -129.5 -187.5t-47.5 -269.5q0 -153 59.5 -283t170.5 -221q80 -66 186 -103.5t213 -37.5q30 0 58.5 5 t52.5 14q5 116 7.5 216.5t2.5 190.5v84h-320l135 141q68 -2 153.5 -4t238.5 -4v-596q-188 -126 -297 -173.5t-199 -47.5q-283 0 -456 187t-173 495z" />
<glyph unicode="H" horiz-adv-x="1298" d="M115 -10q6 141 9 312t3 415q0 243 -3 413t-9 312l245 8q-7 -168 -10.5 -330.5t-3.5 -318.5h606q0 134 -3.5 288.5t-10.5 352.5l247 8q-6 -156 -10.5 -336t-3.5 -389q0 -209 3.5 -389t11.5 -336l-248 -10q7 193 10.5 357.5t3.5 316.5h-606q0 -166 3.5 -331.5t10.5 -331.5z " />
<glyph unicode="I" horiz-adv-x="508" d="M127 -10q7 159 10.5 339.5t3.5 387.5q0 205 -3.5 385t-10.5 340l251 8q-6 -156 -9.5 -335.5t-3.5 -389.5t3.5 -389.5t10.5 -335.5z" />
<glyph unicode="J" horiz-adv-x="764" d="M0 82l139 149q49 -60 102 -91.5t109 -32.5q26 46 36.5 115.5t10.5 234.5q0 397 -3 616.5t-11 368.5l251 8q-6 -172 -9.5 -335.5t-3.5 -315.5q0 -40 1 -169t1 -218q0 -98 -21 -150.5t-76 -99.5q-105 -91 -197.5 -146t-133.5 -55q-50 0 -96.5 29t-98.5 92z" />
<glyph unicode="K" d="M115 -10q6 141 9 312t3 415q0 243 -3 413t-9 312l245 8q-7 -161 -10.5 -343.5t-3.5 -393.5l383 514q13 17 38 51q87 114 118 164l172 8l-533 -680l566 -698l-220 -111q-85 119 -155 214t-115 153l-246 309h-8q0 -148 3.5 -308t10.5 -328z" />
<glyph unicode="L" horiz-adv-x="905" d="M127 0q7 155 10.5 333t3.5 384q0 205 -3.5 385t-10.5 340l251 8q-6 -163 -9.5 -342.5t-3.5 -382.5q0 -151 6 -513q1 -49 2 -75h125q124 0 213.5 2.5t162.5 7.5q-15 -31 -29.5 -67.5t-31.5 -89.5q-95 5 -167.5 7.5t-129.5 2.5h-389z" />
<glyph unicode="M" horiz-adv-x="1659" d="M80 -10q31 189 65 521t78 875l-18 56l231 8l371 -1157q178 454 276.5 724t143.5 425l241 8v-107q0 -266 16 -608.5t44 -734.5l-233 -10q-5 306 -17 594t-31 555q-116 -288 -222.5 -572.5t-203.5 -566.5l-153 -10q-41 163 -136 469.5t-221 679.5q-37 -423 -60 -706.5 t-32 -432.5z" />
<glyph unicode="N" horiz-adv-x="1337" d="M66 1399l215 80q83 -124 194.5 -285t245.5 -352l321 -459v770q0 70 -1 144.5t-3 156.5l127 12q-2 -74 -3 -139t-1 -129v-901q0 -46 6 -116t17 -156l-131 -41q-99 161 -312 466l-24 35l-436 625v-354q0 -70 3.5 -274t10.5 -482l-145 -10q6 325 9 528t3 283v473z" />
<glyph unicode="O" horiz-adv-x="1446" d="M61 631q0 218 79.5 380t260.5 312q97 79 190.5 117.5t188.5 38.5q99 0 191.5 -32.5t163.5 -92.5q121 -104 185 -253t64 -325q0 -167 -63 -314.5t-182 -258.5q-139 -130 -250 -186t-225 -56q-265 0 -434 187t-169 483zM240 772q0 -268 162.5 -445t404.5 -177h4 q102 0 180.5 28t104.5 72q43 74 65.5 169.5t22.5 201.5q0 303 -150.5 486t-398.5 183q-99 0 -179 -28t-108 -70q-49 -74 -78.5 -188t-29.5 -232z" />
<glyph unicode="P" horiz-adv-x="1071" d="M123 -10q7 159 10.5 339.5t3.5 387.5q0 205 -3.5 385t-10.5 339q176 2 371 8q50 1 59 1q223 0 342 -96t119 -275q0 -126 -63 -228.5t-195 -191.5q-83 -55 -155.5 -80.5t-147.5 -25.5q-40 0 -59.5 1t-37.5 3q0 -96 4 -239.5t11 -317.5zM356 700q56 -10 96 -15t72 -5 q59 0 107 8.5t88 26.5q37 66 55.5 135t18.5 141q0 153 -107.5 243.5t-290.5 90.5q-6 0 -19.5 -1t-19.5 -1v-623z" />
<glyph unicode="Q" horiz-adv-x="1446" d="M61 631q0 195 70 353t211 286q125 113 227 161t211 48q99 0 191.5 -32.5t163.5 -92.5q121 -104 185 -253t64 -325q0 -153 -49.5 -284.5t-152.5 -251.5l190 -129l-164 -150l-184 139q-88 -68 -180 -103.5t-180 -35.5q-265 0 -434 187t-169 483zM242 764q0 -143 51 -264 t147 -205q140 92 211.5 125t122.5 33q56 0 136.5 -40.5t203.5 -129.5q35 72 52.5 157.5t17.5 182.5q0 303 -150.5 485t-398.5 182q-99 0 -179 -28t-108 -70q-49 -76 -77.5 -190.5t-28.5 -237.5zM469 268q67 -59 154.5 -91t183.5 -32q24 0 55.5 4t73.5 13l-28 17 q-229 140 -300 140q-31 0 -66 -12.5t-73 -38.5z" />
<glyph unicode="R" horiz-adv-x="1071" d="M115 -10q6 141 9 312t3 415q0 243 -3 413t-9 312h49q89 0 205.5 4t144.5 4q220 0 337.5 -87.5t117.5 -250.5q0 -146 -100 -250.5t-294 -161.5q151 -209 269 -363.5t215 -266.5l-207 -109q-80 113 -214.5 296.5t-291.5 391.5q0 -156 3.5 -318.5t10.5 -329.5zM346 696 l166 103q26 -12 54 -20t59 -13q62 45 94.5 109.5t32.5 142.5q0 140 -84.5 226.5t-218.5 86.5q-29 0 -54.5 -2t-48.5 -6v-627z" />
<glyph unicode="S" horiz-adv-x="891" d="M57 174l191 125q54 -93 120 -135.5t156 -42.5q12 0 24 0.5t37 3.5q26 40 38 90.5t12 116.5q0 97 -45 155t-188 125q-11 5 -34 15q-136 61 -196 121q-46 46 -70 109t-24 138q0 112 49.5 208.5t151.5 182.5q49 42 121 67.5t141 25.5q81 0 152 -46t122 -133l-178 -122 q-55 77 -116.5 114t-137.5 37q-20 0 -43 -3t-49 -9q-28 -33 -43 -79t-15 -101q0 -79 50 -147.5t142 -116.5q35 -18 98 -47q122 -57 161 -91q61 -50 92 -117.5t31 -148.5q0 -114 -45.5 -212.5t-134.5 -176.5q-63 -56 -139.5 -87.5t-145.5 -31.5q-92 0 -165.5 55t-119.5 158z " />
<glyph unicode="T" horiz-adv-x="981" d="M-4 1309l96 141q70 -4 159.5 -6t209.5 -2q134 0 268 0.5t281 3.5l-101 -137q-117 2 -183 3h-64h-60q-1 -48 -1.5 -105.5t-0.5 -174.5q0 -349 4 -610.5t12 -421.5l-251 -10q8 171 12 415t4 549q0 55 -1 174t-1 184q-29 2 -60 2.5t-90 0.5q-64 0 -122 -1.5t-111 -4.5z" />
<glyph unicode="U" horiz-adv-x="1294" d="M115 1442l245 8q-7 -179 -10.5 -400t-3.5 -497q0 -235 75 -328.5t257 -93.5q71 0 125.5 17t99.5 53q24 78 34.5 163t10.5 230v33q0 254 -3.5 455t-10.5 359l245 9q-7 -157 -11 -336.5t-3 -388.5q0 -209 3.5 -388.5t11.5 -336.5l-246 -10q5 46 8 88t4 81 q-113 -104 -206 -151t-187 -47q-227 0 -326.5 130t-99.5 431v258q0 188 -3 348t-9 314z" />
<glyph unicode="V" horiz-adv-x="1200" d="M16 1421l228 39q100 -342 200.5 -656.5t200.5 -596.5q112 316 215 625t197 610l149 8q-245 -657 -378.5 -1035.5t-133.5 -414.5l-215 -10q-135 452 -254.5 820.5t-208.5 610.5z" />
<glyph unicode="W" horiz-adv-x="1683" d="M10 1421l226 39q113 -407 208 -713.5t177 -527.5q30 73 70 187t106 313q-38 131 -97.5 307.5t-138.5 394.5l225 39q39 -139 70.5 -250t61.5 -211q54 167 86.5 270t52.5 173l149 8q-70 -177 -130 -337t-105 -290l196 -594q117 337 214 642.5t171 570.5l144 8 q-231 -653 -355 -1027.5t-124 -418.5v-4l-199 -10q-22 83 -60.5 211.5t-107.5 351.5q-108 -290 -146 -404t-40 -148l-195 -11q-124 422 -241.5 789t-217.5 642z" />
<glyph unicode="X" horiz-adv-x="1090" d="M37 -10q100 151 201 322.5t204 363.5q-103 213 -199.5 403t-189.5 363l246 8l274 -569l297 561l158 8q-79 -128 -176.5 -297t-216.5 -383q135 -273 231.5 -460.5t165.5 -309.5l-252 -10l-270 571q-49 -78 -115.5 -203.5t-181.5 -357.5z" />
<glyph unicode="Y" horiz-adv-x="991" d="M0 1421l233 39q80 -195 160 -377t160 -352q104 233 176 406t119 305l129 8q-93 -215 -186.5 -427.5t-190.5 -426.5v-125q0 -136 2.5 -250.5t7.5 -219.5l-239 -11q6 133 9 262.5t3 249.5v94q-66 154 -162.5 361.5t-220.5 463.5z" />
<glyph unicode="Z" horiz-adv-x="1014" d="M33 0q158 275 319 581.5t346 684.5h-147q-84 0 -253.5 -3t-236.5 -3l64 190q214 -4 418.5 -6t398.5 -2q-166 -310 -327.5 -625.5t-321.5 -640.5q139 0 292.5 1t384.5 3l-55 -190q-152 3 -380.5 6t-501.5 4z" />
<glyph unicode="[" horiz-adv-x="545" d="M121 -483q8 315 12 595t4 533q0 191 -2.5 393t-7.5 422h358l-59 -90h-143v-1763h209l-66 -90h-305z" />
<glyph unicode="\" horiz-adv-x="750" d="M14 1479h76l645 -1669h-76z" />
<glyph unicode="]" horiz-adv-x="545" d="M53 1370l66 90h305q-8 -204 -12 -533t-4 -761q0 -104 2 -254t8 -397h-359l60 90h143v1765h-209z" />
<glyph unicode="^" horiz-adv-x="2048" d="M420 901l510 557h186l510 -557h-180l-422 420l-424 -420h-180z" />
<glyph unicode="_" horiz-adv-x="1024" d="M0 -340h1024v-143h-1024v143z" />
<glyph unicode="`" horiz-adv-x="1024" d="M262 1442h178l209 -350h-106z" />
<glyph unicode="a" horiz-adv-x="891" d="M57 227q0 148 122 244t313 96q27 0 53.5 -3t54.5 -9q0 11 1 29.5t1 27.5q0 118 -56.5 170t-185.5 52q-73 0 -136 -21.5t-115 -64.5l-25 22l182 191q50 10 93.5 15t82.5 5q181 0 269 -83.5t88 -254.5q0 -11 -5.5 -225t-5.5 -418l-194 -10l6 114q-38 -20 -102 -54 q-166 -89 -185 -89q-99 0 -177.5 79t-78.5 187zM236 348q0 -98 63 -161.5t162 -63.5q29 0 62.5 7t76.5 22v278q-61 23 -116 34t-103 11q-35 0 -63 -5t-54 -15q-14 -24 -21 -50t-7 -57z" />
<glyph unicode="b" horiz-adv-x="952" d="M90 1442l204 8q-2 -133 -3.5 -284t-1.5 -320q58 28 147 72q124 63 142 63q36 0 90.5 -23.5t99.5 -60.5q68 -55 102.5 -136t34.5 -183q0 -127 -44 -255.5t-87 -164.5q-101 -84 -204 -140.5t-136 -56.5q-58 0 -138 18t-204 60q1 168 1.5 328t0.5 350q0 312 -1 458.5 t-3 266.5zM286 369q0 -29 0.5 -98.5t0.5 -108.5q86 -33 153 -49.5t117 -16.5h25q61 77 92 169t31 196q0 175 -68.5 277t-183.5 102q-17 0 -35.5 -4t-36.5 -11q-52 -57 -73.5 -156.5t-21.5 -299.5z" />
<glyph unicode="c" horiz-adv-x="834" d="M47 406q0 91 25.5 177.5t93.5 207.5q10 16 19 26t18 14l231 130q16 9 44 14.5t59 5.5q86 0 152.5 -58t103.5 -165l-185 -94q-40 93 -94.5 138.5t-126.5 45.5q-14 0 -30 -3t-38 -9q-40 -72 -60.5 -149.5t-20.5 -158.5q0 -190 100.5 -308t261.5 -118q37 0 81.5 10t100.5 31 l11 -22q-150 -102 -209 -131t-103 -29q-192 0 -313 124t-121 321z" />
<glyph unicode="d" horiz-adv-x="963" d="M47 379q0 133 58 271.5t135 205.5q58 50 142.5 87.5t129.5 37.5q15 0 59.5 -8t102.5 -20q-2 161 -3.5 283t-2.5 206l204 8q-2 -114 -3 -258.5t-1 -466.5q0 -323 1 -467t3 -258l-204 -10l4 114q-28 -15 -78 -44q-173 -99 -205 -99q-38 0 -88.5 20t-97.5 54 q-76 56 -116 144t-40 200zM254 453q0 -160 69 -253.5t185 -93.5q14 1 31 3t41 8q51 55 72.5 152.5t21.5 330.5v178q-71 41 -140 60.5t-143 19.5q-13 0 -26.5 -2t-26.5 -6q-41 -85 -62.5 -187t-21.5 -210z" />
<glyph unicode="e" horiz-adv-x="834" d="M47 426q0 135 39 247.5t98 160.5q86 67 173 107t145 40q125 0 205.5 -105.5t80.5 -273.5v-27l-198 -96h-361q17 -175 121 -272.5t273 -97.5q42 0 81.5 8.5t75.5 25.5l12 -25q-15 -9 -43 -28q-196 -129 -280 -129q-193 0 -307.5 126t-114.5 339zM225 569h361v11 q0 124 -60 198t-159 74q-19 0 -36 -3t-34 -9q-36 -50 -54 -118t-18 -153z" />
<glyph unicode="f" horiz-adv-x="588" d="M55 854l54 90h69q2 92 16.5 158t43.5 117q22 37 48.5 68.5t57.5 58.5q77 63 139 98t99 35q12 0 25 -1.5t25 -4.5l-89 -164q-29 6 -52.5 9t-44.5 3q-47 0 -58 -17t-11 -92v-92q0 -53 0.5 -94t1.5 -82h172l-49 -90h-123q0 -27 -1 -124t-1 -167q0 -152 1.5 -293.5 t4.5 -269.5l-209 -10q2 100 3 290t1 431v143h-123z" />
<glyph unicode="g" horiz-adv-x="1024" d="M98 -227q0 42 160 168l23 18q-78 0 -122 17.5t-44 48.5q0 28 42.5 100t110.5 151q-75 43 -114 108.5t-39 150.5q0 77 32 148t84 112q106 81 184.5 124.5t121.5 43.5h12h414l-158 -109q44 -33 66 -83.5t22 -117.5q0 -91 -44.5 -166.5t-135.5 -140.5q-80 -57 -153.5 -88 t-127.5 -31q-27 0 -61 8.5t-72 24.5q-17 -22 -25 -39.5t-8 -34.5q0 -43 46.5 -61.5t164.5 -18.5q31 0 87.5 3.5t82.5 3.5q121 0 188.5 -53.5t67.5 -147.5q0 -69 -33.5 -129t-107.5 -125q-81 -72 -168 -106.5t-186 -34.5q-136 0 -223 72.5t-87 183.5zM283 -164 q0 -82 67.5 -128t190.5 -46q56 0 106.5 14t85.5 39q5 14 7.5 31.5t2.5 42.5q0 102 -49 141t-186 39q-40 0 -83 -3t-91 -9q-25 -25 -38 -56t-13 -65zM305 629q0 -129 65 -203t179 -74q22 0 48 4t53 11q28 30 44.5 78t16.5 104q0 132 -75.5 215.5t-193.5 83.5 q-15 0 -30.5 -2.5t-33.5 -8.5q-36 -41 -54.5 -93t-18.5 -115z" />
<glyph unicode="h" horiz-adv-x="958" d="M90 -10q2 89 3 192.5t1 304.5v314q0 308 -1 431.5t-3 209.5l204 8q-1 -120 -2 -198.5t-1 -149.5q0 -43 1 -136.5t1 -144.5q68 51 131.5 89.5t124.5 66.5q2 0 6 1q31 3 45 3q59 0 111.5 -22.5t97.5 -67.5q30 -30 42.5 -79t12.5 -173v-27q0 -67 -1 -134l-1 -68 q0 -55 1.5 -156.5t4.5 -252.5l-204 -11q2 73 3 174.5t1 347.5q0 133 -9 180.5t-30 69.5q-28 29 -74 46t-98 17q-55 0 -77 -8t-34 -29q-31 -54 -44 -138.5t-13 -315.5q0 -66 1.5 -150t4.5 -184z" />
<glyph unicode="i" horiz-adv-x="408" d="M49 1217l146 165l145 -69l-145 -164zM100 -10q2 91 3 192t1 285t-1 285t-3 192l207 8q-2 -83 -3 -180.5t-1 -294.5t1 -295t3 -182z" />
<glyph unicode="j" horiz-adv-x="422" d="M-6 -457q70 28 97.5 119t27.5 358v216q0 205 -1.5 382t-4.5 326l209 8q-3 -99 -4 -209.5t-1 -314.5v-211v-86q0 -203 -12 -281.5t-41 -123.5q-36 -56 -100 -107.5t-160 -101.5zM63 1217l144 165l145 -69l-145 -164z" />
<glyph unicode="k" horiz-adv-x="938" d="M100 -10q3 107 3.5 250.5t0.5 476.5q0 340 -0.5 481.5t-3.5 243.5l203 8q-2 -91 -3 -206.5t-1 -373.5v-376l213 229q52 57 99.5 112t90.5 109l162 8q-169 -171 -248 -253t-137 -144l436 -492l-194 -88l-424 482q0 -88 1.5 -201.5t4.5 -254.5z" />
<glyph unicode="l" horiz-adv-x="408" d="M100 -10q3 107 3.5 250.5t0.5 476.5q0 332 -0.5 474.5t-3.5 250.5l207 8q-2 -114 -3 -258.5t-1 -466.5t1 -466.5t3 -258.5z" />
<glyph unicode="m" horiz-adv-x="1403" d="M90 -10q2 91 3 192t1 285t-1 285t-3 192l205 8q0 -38 -1 -81.5t-1 -49.5q44 31 116.5 79.5t100.5 68.5q18 6 36 9t36 3q71 0 124.5 -41t81.5 -119q74 59 122 94.5t79 55.5q10 5 21 7.5t26 2.5q113 0 183.5 -52.5t80.5 -143.5q4 -27 5.5 -75.5t1.5 -191.5v-84 q0 -157 1 -250.5t3 -183.5l-203 -10q3 184 4.5 314.5t1.5 207.5q0 187 -39.5 253t-140.5 66q-34 0 -52.5 -5t-25.5 -17q-28 -46 -41.5 -127t-13.5 -205q0 -114 1.5 -233.5t4.5 -243.5l-205 -10q3 116 4.5 218.5t1.5 190.5q0 285 -36.5 356.5t-133.5 71.5q-86 0 -117.5 -92.5 t-31.5 -460.5q0 -51 1.5 -120t4.5 -154z" />
<glyph unicode="n" horiz-adv-x="958" d="M90 -10q2 91 3 192t1 285t-1 285t-3 192l205 8q0 -38 -1 -81.5t-1 -49.5q68 51 131.5 89.5t124.5 66.5q2 0 6 1q31 3 45 3q59 0 111.5 -22.5t97.5 -67.5q30 -30 42.5 -79t12.5 -173v-27q0 -67 -1 -134l-1 -68q0 -55 1.5 -156.5t4.5 -252.5l-204 -11q2 73 3 174.5t1 347.5 q0 133 -9 180.5t-30 69.5q-28 29 -74 46t-98 17q-55 0 -77 -8t-34 -29q-31 -54 -44 -138.5t-13 -315.5q0 -66 1.5 -150t4.5 -184z" />
<glyph unicode="o" horiz-adv-x="963" d="M47 389q0 86 24 177.5t70 185.5l254 200q13 11 54.5 20t89.5 9q178 0 277 -107.5t99 -300.5q0 -94 -26 -193t-76 -194l-233 -188q-24 -18 -58.5 -27.5t-79.5 -9.5q-178 0 -286.5 117.5t-108.5 310.5zM231 514q0 -187 87 -288t247 -101q33 0 59.5 6.5t51.5 20.5 q26 48 39.5 122.5t13.5 167.5q0 183 -77.5 289.5t-209.5 106.5q-32 0 -64 -6.5t-65 -18.5q-39 -38 -60.5 -115.5t-21.5 -183.5z" />
<glyph unicode="p" horiz-adv-x="948" d="M90 -483q2 115 3 304t1 421q0 317 -1 456.5t-3 245.5l205 8q-2 -75 -2 -112l225 137q8 2 16 3t25 1q139 0 240.5 -122t101.5 -298q0 -124 -38.5 -230.5t-125.5 -220.5q-11 -14 -44.5 -37t-82.5 -48q-64 -35 -99 -49.5t-54 -14.5q-25 0 -68.5 8.5t-99.5 24.5 q0 -169 5 -405q1 -43 1 -62zM287 371q0 -59 3 -194q1 -13 1 -19q74 -39 140 -58.5t122 -19.5q14 0 28 2.5t29 7.5q42 79 64 177t22 206q0 168 -73 270.5t-191 102.5q-11 0 -23.5 -1.5t-28.5 -5.5q-49 -52 -71 -159.5t-22 -308.5z" />
<glyph unicode="q" horiz-adv-x="963" d="M45 379q0 108 33.5 218.5t91.5 193.5q14 19 29.5 35t33.5 28q88 60 168 93.5t134 33.5q20 0 62 -9.5t95 -27.5l180 19q-2 -106 -3 -246t-1 -465q0 -362 1 -499t3 -226l-204 -10q2 142 3 235t1 178v172q-85 -51 -146.5 -84.5t-107.5 -54.5q-164 0 -268.5 116t-104.5 300z M238 461q0 -153 88 -249.5t221 -96.5q11 0 23.5 1.5t25.5 4.5q79 65 80 536v131q-72 39 -137.5 58.5t-118.5 19.5q-22 0 -44.5 -4.5t-43.5 -13.5q-46 -85 -70 -184t-24 -203z" />
<glyph unicode="r" horiz-adv-x="649" d="M99 -10q2 130 3.5 249.5t1.5 227.5t-1.5 227.5t-3.5 249.5l208 8l-6 -135q75 78 136 121t95 43q32 0 70 -43t74 -121l-180 -127q-23 56 -53 92.5t-50 36.5q-37 0 -63.5 -103.5t-26.5 -264.5q0 -172 1 -267.5t3 -183.5z" />
<glyph unicode="s" horiz-adv-x="750" d="M72 180l176 84q40 -92 89.5 -138t108.5 -46h13q22 27 34.5 62t12.5 71q0 49 -29 81t-123 73l-10 4q-256 114 -256 276q0 78 25 128.5t84 90.5q74 52 137.5 83.5t87.5 31.5q80 0 146.5 -56t103.5 -155l-166 -88q-31 89 -79.5 130.5t-121.5 41.5q-13 0 -20 -0.5t-13 -2.5 q-17 -22 -26.5 -51.5t-9.5 -58.5q0 -47 31 -84t98 -69q27 -13 80 -36q126 -52 165 -97q28 -31 42 -72t14 -90q0 -109 -70.5 -185.5t-235.5 -146.5q-110 2 -184.5 58.5t-103.5 160.5z" />
<glyph unicode="t" horiz-adv-x="653" d="M27 854l98 90h37v176l194 66v-242h250l-102 -90h-146q-1 -86 -1.5 -166.5t-0.5 -167.5v-94q0 -210 25 -262.5t94 -52.5q30 0 59.5 6.5t59.5 19.5l14 -24q-93 -80 -163.5 -116t-133.5 -36q-86 0 -118.5 51t-32.5 256q0 75 1 206t1 188q0 79 -0.5 118.5t-2.5 73.5h-132z " />
<glyph unicode="u" horiz-adv-x="958" d="M90 944l205 8q-3 -96 -4.5 -227t-1.5 -297q0 -123 8.5 -173t30.5 -73q30 -30 76.5 -47.5t97.5 -17.5t73.5 8.5t34.5 30.5q33 56 46.5 144.5t13.5 309.5q0 72 -1.5 155t-4.5 179l204 8q-3 -121 -4.5 -238.5t-1.5 -236.5t1.5 -238.5t4.5 -237.5l-204 -11q0 32 0.5 65 t1.5 68q-72 -52 -136 -91t-123 -65q-9 -1 -18 -1.5t-27 -0.5q-138 0 -203 74.5t-65 232.5v260q0 124 -1 219.5t-3 192.5z" />
<glyph unicode="v" horiz-adv-x="854" d="M2 944l201 37l268 -791l260 754l121 19q-178 -462 -252 -664t-74 -227q0 -9 5 -23.5t15 -38.5l-202 -20q-40 127 -129 376t-213 578z" />
<glyph unicode="w" horiz-adv-x="1298" d="M41 944l205 37q46 -220 92.5 -412.5t95.5 -365.5q31 90 72.5 244t103.5 409l-30 88l202 37l187 -778l194 741l123 8q-103 -315 -177.5 -567.5t-104.5 -384.5l-181 -10q-29 142 -69.5 317.5t-89.5 380.5l-195 -688l-180 -10q-50 231 -112 470t-136 484z" />
<glyph unicode="x" horiz-adv-x="883" d="M4 930l209 51q84 -135 148.5 -235t109.5 -164q62 79 128 172t136 198l142 11q-97 -122 -185 -237t-166 -222q52 -81 129 -192t211 -298l-225 -37q-57 95 -115.5 186.5t-119.5 180.5q-64 -80 -126.5 -165.5t-123.5 -178.5l-142 -10q72 85 154.5 191.5t179.5 242.5 l-106 163q-9 14 -90 129.5t-148 213.5z" />
<glyph unicode="y" horiz-adv-x="891" d="M0 952l217 29q79 -232 152.5 -421t136.5 -322l256 706l127 19q-143 -345 -280.5 -703t-270.5 -733l-148 -10q37 75 70 147t64 141l73 170q-100 260 -198.5 502.5t-198.5 474.5z" />
<glyph unicode="z" horiz-adv-x="844" d="M33 -10l536 809h-458l53 153h616l-530 -800h203q148 0 217 2t124 8l-47 -172q-67 5 -135 7.5t-139 2.5q-98 0 -206.5 -2.5t-233.5 -7.5z" />
<glyph unicode="{" horiz-adv-x="1024" d="M168 457v149q8 0 23 -1t22 -1q130 0 184 60.5t54 207.5v246q0 148 22.5 210.5t77.5 96.5q45 28 108.5 40t169.5 12h37v-150h-41q-120 0 -161 -44.5t-41 -184.5v-242q0 -160 -44.5 -228t-156.5 -98q113 -28 157 -96t44 -229v-242q0 -141 41.5 -185t162.5 -44h39v-148h-43 q-108 0 -169 11.5t-103 37.5q-55 34 -77.5 97t-22.5 211v245q0 149 -54.5 210t-185.5 61q-7 0 -21.5 -1t-21.5 -1z" />
<glyph unicode="|" horiz-adv-x="1024" d="M438 -483v2048h150v-2048h-150z" />
<glyph unicode="}" horiz-adv-x="1024" d="M160 -266h39q120 0 162 45t42 186v240q0 160 44.5 228t156.5 97q-112 30 -156.5 98t-44.5 228v242q0 140 -42 184.5t-162 44.5h-39v150h37q107 0 171 -12.5t107 -39.5q55 -34 77.5 -96.5t22.5 -210.5v-246q0 -147 54 -207.5t184 -60.5q7 0 22 1t23 1v-149q-7 0 -22 1 t-21 1q-132 0 -186 -60.5t-54 -210.5v-245q0 -148 -22.5 -211t-77.5 -97q-42 -26 -103 -37.5t-169 -11.5h-43v148z" />
<glyph unicode="~" horiz-adv-x="1706" d="M178 451v155q106 72 202 108t185 36q62 0 127.5 -13.5t163.5 -48.5q16 -5 47 -17q159 -57 240 -57q88 0 179.5 37t207.5 119v-156q-104 -72 -199 -106.5t-190 -34.5q-93 0 -256 58q-22 8 -34 12l-15 5q-176 60 -273 60q-84 0 -175 -37t-210 -120z" />
<glyph unicode="&#xa0;" />
<glyph unicode="&#xa1;" horiz-adv-x="602" d="M166 1260q31 28 64.5 62t74.5 79q34 -37 69.5 -72.5t71.5 -68.5q-43 -37 -77.5 -71.5t-63.5 -70.5q-31 37 -65.5 72.5t-73.5 69.5zM190 -39q26 287 43 552t27 515l94 19q7 -415 21 -667t37 -380z" />
<glyph unicode="&#xa2;" d="M143 686q0 205 93.5 335.5t293.5 205.5l-4 227l76 21l-2 -234q133 0 220.5 -56.5t133.5 -170.5l-184 -76q-18 63 -60.5 101.5t-109.5 54.5v-697q43 -10 75.5 -15t59.5 -5q50 0 97.5 11.5t93.5 35.5l14 -27l-229 -139q-15 -5 -37 -7.5t-74 -5.5l2 -253l-76 -12l4 268 q-186 18 -286.5 131.5t-100.5 306.5zM328 805q0 -145 49 -237t153 -142v680q-15 2 -26 3t-21 1q-29 0 -51.5 -3.5t-40.5 -10.5q-32 -49 -47.5 -121.5t-15.5 -169.5z" />
<glyph unicode="&#xa3;" d="M41 0l55 170q121 27 168 104t47 258q0 35 -3 110q-1 12 -1 17h-207v76l205 1q-1 14 -1.5 28t-0.5 35q0 142 30 232t101 171q59 68 129.5 133t153.5 127q22 9 46 13t52 4q67 0 128.5 -20.5t117.5 -61.5l-152 -197q-63 36 -126 55t-113 19q-29 0 -54 -5t-49 -16 q-44 -44 -62 -128t-18 -310q0 -7 1 -33.5t1 -46.5h256v-76h-251q1 -19 1.5 -40.5t0.5 -61.5q0 -72 -5.5 -120.5t-17.5 -80.5q-16 -40 -72.5 -88t-146.5 -98h704l-59 -170h-858z" />
<glyph unicode="&#xa4;" d="M20 545l19 67h129v33q0 52 3.5 97t10.5 85h-162l19 68h158q30 123 93.5 228.5t155.5 187.5q98 86 179.5 127t154.5 41q62 0 129.5 -22t137.5 -64l-144 -170q-55 34 -121.5 54.5t-122.5 20.5q-52 0 -121.5 -24t-91.5 -47q-41 -46 -68 -132t-36 -200h520l-18 -68h-506v-47 q0 -48 3.5 -89t10.5 -78l434 -1l-18 -67h-401q48 -183 164 -288t272 -105q68 0 122.5 20t116.5 70l31 -39q-151 -142 -234 -192t-149 -50q-221 0 -359 155.5t-159 428.5h-152z" />
<glyph unicode="&#xa5;" d="M86 596v68h354q-20 44 -44.5 98t-53.5 117h-256v67h223q-64 139 -118 253.5t-105 221.5l221 39q16 -41 93.5 -223t123.5 -291h205q68 165 119.5 295.5t75.5 200.5l123 8q-10 -22 -37 -84q-102 -234 -185 -420h222v-67h-250q-25 -51 -57.5 -124t-41.5 -91h349v-68h-381 v-92q0 -118 3 -244t9 -260l-217 -10q5 107 7.5 223.5t2.5 255.5v127h-385zM551 879q3 -10 30 -87t46 -130q20 57 45.5 131t29.5 85z" />
<glyph unicode="&#xa6;" horiz-adv-x="1024" d="M438 -350v758h150v-758h-150zM438 674v758h150v-758h-150z" />
<glyph unicode="&#xa7;" horiz-adv-x="1024" d="M66 705q0 64 38 114t148 119q-44 47 -66 96t-22 99q0 67 22.5 116t81.5 105q68 62 128 93.5t114 31.5q124 0 210 -68t111 -186l-147 -74q-27 98 -94.5 153.5t-159.5 55.5q-23 0 -46 -3t-46 -9q-24 -24 -35.5 -51t-11.5 -58q0 -82 64.5 -155.5t211.5 -157.5 q45 -25 133 -71t123 -69q78 -49 104.5 -93t26.5 -109q0 -66 -39 -117t-147 -117q45 -44 67.5 -93t22.5 -99q0 -69 -22 -118t-82 -106q-69 -64 -129.5 -95.5t-114.5 -31.5q-146 0 -239 63.5t-138 192.5l148 74q42 -106 117 -161.5t175 -55.5q27 0 54 4.5t57 14.5 q24 22 35.5 48.5t11.5 59.5q0 84 -62 153t-243 173q-38 22 -108 59q-252 137 -252 273zM211 772q0 -85 261 -234q158 -90 255 -153q41 21 62.5 55.5t21.5 77.5q0 84 -274 241q-150 86 -242 144q-41 -21 -62.5 -54.5t-21.5 -76.5z" />
<glyph unicode="&#xa8;" horiz-adv-x="1024" d="M195 1249q27 24 57.5 54.5t66.5 72.5q30 -34 62 -66t65 -61q-37 -33 -68 -63.5t-59 -61.5q-29 34 -60 65t-64 60zM578 1249q27 24 57.5 54.5t66.5 72.5q30 -34 62 -66t65 -61q-37 -33 -68 -63.5t-59 -61.5q-29 34 -60 65t-64 60z" />
<glyph unicode="&#xa9;" horiz-adv-x="1706" d="M117 727q0 147 56 281.5t163 242.5q104 104 236 158.5t280 54.5q152 0 285.5 -54.5t238.5 -160.5q104 -103 159.5 -238.5t55.5 -283.5q0 -149 -54.5 -281.5t-158.5 -234.5q-110 -107 -245.5 -164t-280.5 -57t-278.5 56t-239.5 163q-106 105 -161.5 238.5t-55.5 279.5z M213 727q0 -126 49 -242t141 -209q92 -91 207.5 -139.5t243.5 -48.5q125 0 242 49t213 142q90 88 137 202.5t47 245.5q0 130 -47.5 246.5t-136.5 206.5q-93 92 -209 140t-246 48q-129 0 -243.5 -47t-204.5 -137q-93 -93 -143 -211.5t-50 -245.5zM463 733q0 200 109 322.5 t286 122.5q142 0 236.5 -75t105.5 -196h-147q-13 77 -66 118.5t-139 41.5q-105 0 -165 -90.5t-60 -249.5q0 -157 62 -244.5t173 -87.5q82 0 136.5 47t68.5 129h145q-9 -130 -107.5 -211t-248.5 -81q-182 0 -285.5 120t-103.5 334z" />
<glyph unicode="&#xaa;" horiz-adv-x="668" d="M43 924q0 103 91 170t235 67q23 0 42 -2t40 -6q0 7 1 20t1 19q0 83 -43 119.5t-140 36.5q-54 0 -101.5 -15t-86.5 -45l-19 15l137 132q31 8 64 11.5t68 3.5q136 0 202 -58t66 -178q0 -8 -4 -157.5t-4 -292.5l-146 -6l5 80q-22 -11 -59 -30q-141 -71 -156 -71 q-75 0 -134 55.5t-59 131.5zM176 1008q0 -69 48 -113.5t122 -44.5q19 0 42.5 4.5t62.5 15.5v194q-44 16 -85.5 24t-78.5 8q-26 0 -47 -3.5t-41 -11.5q-12 -15 -17.5 -33.5t-5.5 -39.5z" />
<glyph unicode="&#xab;" horiz-adv-x="883" d="M74 420l358 416l41 -35l-242 -309l244 -275l-119 -108zM397 420l359 416l43 -35l-244 -309l246 -275l-121 -108z" />
<glyph unicode="&#xac;" horiz-adv-x="1706" d="M254 721v139h1198v-502h-137v363h-1061z" />
<glyph unicode="&#xad;" horiz-adv-x="502" d="M43 410l57 143h361l-58 -143h-360z" />
<glyph unicode="&#xae;" horiz-adv-x="1706" d="M117 727q0 146 57.5 282.5t165.5 245.5q101 103 231.5 156t280.5 53q151 0 286 -56t240 -163q103 -104 158 -238t55 -280q0 -151 -55 -283.5t-160 -234.5q-109 -106 -244.5 -162.5t-279.5 -56.5q-147 0 -280.5 56.5t-239.5 164.5q-105 106 -160 238.5t-55 277.5zM213 727 q0 -125 48.5 -240.5t139.5 -207.5q90 -92 206.5 -141.5t240.5 -49.5q130 0 246.5 48t212.5 140q90 88 138 202.5t48 242.5q0 134 -46.5 251t-135.5 206q-92 93 -208.5 141.5t-248.5 48.5q-130 0 -245 -47t-201 -135q-94 -95 -144.5 -214t-50.5 -245zM557 324v835h315 q174 0 261.5 -57.5t87.5 -171.5q0 -89 -50 -148t-141 -77l187 -381h-177l-170 356h-155v-356h-158zM715 780h133q113 0 162 31.5t49 101.5q0 76 -51 110t-164 34h-129v-277z" />
<glyph unicode="&#xaf;" horiz-adv-x="1024" d="M254 1188v125h516v-125h-516z" />
<glyph unicode="&#xb0;" horiz-adv-x="674" d="M49 1167q0 120 84.5 204.5t204.5 84.5q118 0 202.5 -84.5t84.5 -204.5q0 -119 -84 -202.5t-205 -83.5t-204 83t-83 203zM143 1169q0 -81 57 -138.5t138 -57.5t136.5 57.5t55.5 138.5t-55.5 137t-136.5 56t-138 -56t-57 -137z" />
<glyph unicode="&#xb1;" horiz-adv-x="1706" d="M254 29v141h1198v-141h-1198zM254 713v139h528v340h142v-340h528v-139h-528v-340h-142v340h-528z" />
<glyph unicode="&#xb2;" horiz-adv-x="733" d="M53 575l37 103q85 23 145.5 43t78.5 31q18 13 37 35t36 49q39 53 59.5 115.5t20.5 125.5q0 130 -69 203.5t-189 73.5q-47 0 -81.5 -9t-61.5 -28l-9 6l105 107q12 11 54.5 21.5t90.5 10.5q128 0 207.5 -81.5t79.5 -213.5t-78.5 -258.5t-226.5 -230.5h317l-39 -103h-514z " />
<glyph unicode="&#xb3;" horiz-adv-x="733" d="M106 653l113 95q46 -49 97.5 -75t103.5 -26q14 0 26 3t23 9q13 15 20 34t7 40q0 102 -77 171t-192 69q-17 0 -35.5 -2.5t-40.5 -7.5l-6 8l115 106q12 3 26.5 4.5t30.5 1.5q30 0 49.5 -3t34.5 -9q21 30 32 63t11 66q0 83 -44 126.5t-128 43.5q-30 0 -61.5 -8.5 t-65.5 -26.5l-6 11l119 100q33 8 59.5 12t51.5 4q97 0 159 -53.5t62 -138.5q0 -54 -38 -109t-110 -102q81 -32 128.5 -97t47.5 -143q0 -70 -53 -129t-190 -135q-8 -1 -17.5 -1.5t-29.5 -0.5q-70 0 -128 26t-94 74z" />
<glyph unicode="&#xb4;" horiz-adv-x="1024" d="M375 1092l209 350h178l-281 -350h-106z" />
<glyph unicode="&#xb5;" horiz-adv-x="1151" d="M-113 -428l318 1499h180l-129 -600q-7 -32 -10.5 -64.5t-3.5 -68.5q0 -99 52 -153t148 -54q132 0 208.5 92.5t123.5 311.5l115 536h178l-156 -732q-1 -6 -4 -20q-18 -87 -18 -112q0 -37 16.5 -52.5t55.5 -15.5q12 0 18.5 0.5t13.5 1.5l-31 -143q-24 -5 -50 -7.5t-58 -2.5 q-63 0 -97 29t-52 100q-45 -66 -112.5 -98.5t-158.5 -32.5q-82 0 -143 27.5t-113 88.5l-110 -530h-181z" />
<glyph unicode="&#xb6;" horiz-adv-x="1024" d="M66 1130q0 157 107.5 253t285.5 96h499v-86h-120v-1393h-111v1393h-176v-1393h-113v782q-170 8 -271 102.5t-101 245.5z" />
<glyph unicode="&#xb7;" horiz-adv-x="555" d="M172 739q0 42 31 73.5t73 31.5q43 0 74 -31t31 -74q0 -42 -31 -73t-74 -31q-41 0 -72.5 31.5t-31.5 72.5z" />
<glyph unicode="&#xb8;" horiz-adv-x="1024" d="M299 -336q84 -18 144.5 -26.5t101.5 -8.5q61 0 91 20.5t30 61.5q0 52 -33 75.5t-105 23.5q-20 0 -30.5 -0.5t-20.5 -1.5l-2 192h74v-106h22q112 0 169 -45t57 -132q0 -89 -62.5 -135.5t-183.5 -46.5q-45 0 -105.5 10.5t-146.5 32.5v86z" />
<glyph unicode="&#xb9;" horiz-adv-x="733" d="M289 575q6 103 9 261.5t3 371.5q0 54 -3 187q-1 22 -1 32l145 35q-4 -135 -6 -267.5t-2 -262.5q0 -96 2 -184t6 -173h-153z" />
<glyph unicode="&#xba;" horiz-adv-x="723" d="M35 1036q0 60 18 124t53 130l190 141q16 8 46 13.5t61 5.5q134 0 208.5 -75t74.5 -210q0 -65 -19.5 -134t-56.5 -136l-176 -133q-17 -12 -43.5 -18.5t-58.5 -6.5q-134 0 -215.5 82t-81.5 217zM174 1124q0 -130 65 -201t185 -71q24 0 44.5 4.5t38.5 13.5q20 34 30 85.5 t10 117.5q0 128 -58.5 202.5t-156.5 74.5q-27 0 -50.5 -4t-45.5 -13q-30 -26 -46 -80t-16 -129z" />
<glyph unicode="&#xbb;" horiz-adv-x="883" d="M82 725l121 111l280 -312l-358 -415l-41 32l242 312zM406 725l120 111l281 -312l-358 -415l-41 32l243 312z" />
<glyph unicode="&#xbc;" horiz-adv-x="1741" d="M277 633q4 103 7 253.5t3 336.5q0 49 -4 175v32l139 30q-1 -23 -2 -69q-6 -302 -6 -426q0 -90 2 -172t6 -160h-145zM356 -39l951 1518h73l-950 -1518h-74zM1087 266q122 176 214 316t139 219l123 26q0 -11 -1 -110.5t-1 -188.5q0 -4 1 -64.5t1 -117.5h106l-29 -80h-77 q0 -64 1.5 -131t3.5 -135h-136v13q8 175 8 253h-353zM1186 346h254v385z" />
<glyph unicode="&#xbd;" horiz-adv-x="1741" d="M277 633q4 103 7 253.5t3 336.5q0 49 -4 175v32l139 30q-1 -23 -2 -69q-6 -302 -6 -426q0 -90 2 -172t6 -160h-145zM356 -39l951 1518h73l-950 -1518h-74zM1092 0l34 94q106 30 153.5 46t59.5 26q15 9 34.5 29t37.5 47q37 52 56.5 110.5t19.5 116.5q0 121 -66 189.5 t-182 68.5q-43 0 -75.5 -8.5t-59.5 -26.5l-8 6l100 99q11 11 51 20.5t86 9.5q123 0 199 -75.5t76 -198.5q0 -125 -75.5 -242.5t-217.5 -216.5h305l-39 -94h-489z" />
<glyph unicode="&#xbe;" horiz-adv-x="1741" d="M102 705l107 88q43 -45 92.5 -69t99.5 -24q15 0 27 3t21 8q11 15 17.5 33t6.5 36q0 95 -73.5 159.5t-182.5 64.5q-17 -1 -35 -3.5t-37 -6.5l-8 7l111 99q11 4 24.5 6t30.5 2q23 0 43 -3t37 -9q20 27 30.5 58t10.5 60q0 78 -42.5 119t-121.5 41q-30 0 -60 -7.5t-63 -23.5 l-4 9l113 92q25 8 50.5 12t53.5 4q95 0 154 -50t59 -130q0 -51 -36 -101.5t-105 -95.5q77 -28 122.5 -88.5t45.5 -134.5q0 -65 -50 -119.5t-181 -125.5q-9 -3 -18.5 -4t-29.5 -1q-66 0 -120 24.5t-89 70.5zM356 -39l951 1518h73l-950 -1518h-74zM1087 266q122 176 214 316 t139 219l123 26q0 -11 -1 -110.5t-1 -188.5q0 -4 1 -64.5t1 -117.5h106l-29 -80h-77q0 -64 1.5 -131t3.5 -135h-136v13q8 175 8 253h-353zM1186 346h254v385z" />
<glyph unicode="&#xbf;" horiz-adv-x="854" d="M78 276q0 147 182 354l21 24l7 8q118 134 118 233q-1 25 -4.5 46t-10.5 38l191 75q3 -19 4.5 -33t1.5 -20q0 -48 -13.5 -86.5t-50.5 -89.5q-23 -33 -68 -93q-173 -232 -173 -341q0 -126 71.5 -202t188.5 -76q51 0 104 20t113 62l20 -25l-162 -166q-51 -22 -98.5 -32.5 t-91.5 -10.5q-155 0 -252.5 88.5t-97.5 226.5zM324 1268q31 29 64 62.5t75 78.5q34 -37 69 -72t72 -69q-43 -37 -77.5 -71.5t-63.5 -70.5q-31 37 -66 72.5t-73 69.5z" />
<glyph unicode="&#xc0;" horiz-adv-x="1190" d="M-4 -12q92 243 160 426t90 245l215 637l-58 123l220 60q29 -82 65.5 -179t112.5 -292l203 -525q36 -95 84 -210t106 -250l-229 -48l-183 508h-477l-155 -483zM305 1940h178l209 -350h-106zM350 621h383l-207 538z" />
<glyph unicode="&#xc1;" horiz-adv-x="1190" d="M-4 -12q92 243 160 426t90 245l215 637l-58 123l220 60q29 -82 65.5 -179t112.5 -292l203 -525q36 -95 84 -210t106 -250l-229 -48l-183 508h-477l-155 -483zM350 621h383l-207 538zM418 1590l209 350h178l-281 -350h-106z" />
<glyph unicode="&#xc2;" horiz-adv-x="1190" d="M-4 -12q92 243 160 426t90 245l215 637l-58 123l220 60q29 -82 65.5 -179t112.5 -292l203 -525q36 -95 84 -210t106 -250l-229 -48l-183 508h-477l-155 -483zM272 1633l228 290h108l228 -290l-138 -27l-143 207l-143 -207zM350 621h383l-207 538z" />
<glyph unicode="&#xc3;" horiz-adv-x="1190" d="M-4 -12q92 243 160 426t90 245l215 637l-58 123l220 60q29 -82 65.5 -179t112.5 -292l203 -525q36 -95 84 -210t106 -250l-229 -48l-183 508h-477l-155 -483zM264 1649q21 91 71.5 138.5t125.5 47.5q16 0 31 -2.5t30 -7.5l79 -27q17 -5 32 -7.5t28 -2.5q36 0 60.5 17.5 t36.5 52.5h88q-24 -93 -75.5 -143t-123.5 -50q-19 0 -34.5 2.5t-31.5 8.5l-79 26q-15 5 -28.5 7.5t-24.5 2.5q-35 0 -58.5 -15t-38.5 -48h-88zM350 621h383l-207 538z" />
<glyph unicode="&#xc4;" horiz-adv-x="1190" d="M-4 -12q92 243 160 426t90 245l215 637l-58 123l220 60q29 -82 65.5 -179t112.5 -292l203 -525q36 -95 84 -210t106 -250l-229 -48l-183 508h-477l-155 -483zM238 1747q27 24 57.5 54.5t66.5 72.5q30 -34 62 -66t65 -61q-37 -33 -68 -63.5t-59 -61.5q-29 34 -60 65 t-64 60zM350 621h383l-207 538zM621 1747q27 24 57.5 54.5t66.5 72.5q30 -34 62 -66t65 -61q-37 -33 -68 -63.5t-59 -61.5q-29 34 -60 65t-64 60z" />
<glyph unicode="&#xc5;" horiz-adv-x="1190" d="M-4 -12q92 243 160 426t90 245l215 637l-31 54l219 59q16 -47 53.5 -146t98.5 -255l203 -525q36 -95 84 -210t106 -250l-229 -48l-183 508h-477l-155 -483zM324 1724q0 105 71.5 176.5t175.5 71.5q105 0 176.5 -71.5t71.5 -176.5q0 -104 -71.5 -175.5t-176.5 -71.5 q-104 0 -175.5 71.5t-71.5 175.5zM350 621h383l-207 538zM428 1724q0 -60 41.5 -101.5t101.5 -41.5t101 41.5t41 101.5q0 61 -41 102.5t-101 41.5t-101.5 -42t-41.5 -102z" />
<glyph unicode="&#xc6;" horiz-adv-x="1702" d="M0 -12q199 347 382 674t353 643l-86 137h215q240 0 415.5 2t309.5 6l-65 -145q-37 4 -84 6t-154 2h-186q-2 -12 -3 -35.5t-1 -89.5v-146v-241h100q109 0 204.5 1.5t178.5 4.5l-68 -139q-51 3 -94.5 4.5t-79.5 1.5h-241v-383q0 -79 1 -107.5t3 -46.5q22 -1 45.5 -1.5 t66.5 -0.5h99q130 0 189.5 2.5t104.5 7.5l-69 -155q-89 5 -211.5 7.5t-269.5 2.5h-190q4 131 7 250.5t4 232.5h-442l-256 -483zM508 621h366v692z" />
<glyph unicode="&#xc7;" horiz-adv-x="1204" d="M57 645q0 209 88 377.5t258 288.5q130 92 227.5 130t198.5 38q88 0 169.5 -24.5t156.5 -74.5l-145 -174q-75 47 -156 69.5t-176 22.5q-90 0 -165.5 -17.5t-106.5 -43.5q-82 -65 -129.5 -187.5t-47.5 -269.5q0 -278 173 -453t448 -175q89 0 167 24.5t144 73.5l31 -39 q-28 -20 -79 -57q-263 -193 -404 -193q-298 0 -475 186t-177 498zM389 -336q84 -18 144.5 -26.5t101.5 -8.5q61 0 91 20.5t30 61.5q0 52 -33 75.5t-105 23.5q-20 0 -30.5 -0.5t-20.5 -1.5l-2 192h74v-106h22q112 0 169 -45t57 -132q0 -89 -62.5 -135.5t-183.5 -46.5 q-45 0 -105.5 10.5t-146.5 32.5v86z" />
<glyph unicode="&#xc8;" horiz-adv-x="930" d="M115 0q6 138 9 305.5t3 411.5q0 243 -3 413t-9 312q240 0 415 2t310 6l-66 -145q-36 4 -83 6t-154 2l-187 -1q-2 -12 -3 -35t-1 -89v-146v-241h96q107 0 203.5 1.5t183.5 3.5l-67 -138q-52 3 -95 4.5t-79 1.5h-242v-383q0 -78 1 -107t3 -46q22 -2 45.5 -2.5t67.5 -0.5h98 q130 0 189.5 2.5t105.5 7.5l-70 -155q-89 5 -211 7.5t-270 2.5h-190zM215 1940h178l209 -350h-106z" />
<glyph unicode="&#xc9;" horiz-adv-x="930" d="M115 0q6 138 9 305.5t3 411.5q0 243 -3 413t-9 312q240 0 415 2t310 6l-66 -145q-36 4 -83 6t-154 2l-187 -1q-2 -12 -3 -35t-1 -89v-146v-241h96q107 0 203.5 1.5t183.5 3.5l-67 -138q-52 3 -95 4.5t-79 1.5h-242v-383q0 -78 1 -107t3 -46q22 -2 45.5 -2.5t67.5 -0.5h98 q130 0 189.5 2.5t105.5 7.5l-70 -155q-89 5 -211 7.5t-270 2.5h-190zM328 1590l209 350h178l-281 -350h-106z" />
<glyph unicode="&#xca;" horiz-adv-x="930" d="M115 0q6 138 9 305.5t3 411.5q0 243 -3 413t-9 312q240 0 415 2t310 6l-66 -145q-36 4 -83 6t-154 2l-187 -1q-2 -12 -3 -35t-1 -89v-146v-241h96q107 0 203.5 1.5t183.5 3.5l-67 -138q-52 3 -95 4.5t-79 1.5h-242v-383q0 -78 1 -107t3 -46q22 -2 45.5 -2.5t67.5 -0.5h98 q130 0 189.5 2.5t105.5 7.5l-70 -155q-89 5 -211 7.5t-270 2.5h-190zM182 1633l228 290h108l228 -290l-138 -27l-143 207l-143 -207z" />
<glyph unicode="&#xcb;" horiz-adv-x="930" d="M115 0q6 138 9 305.5t3 411.5q0 243 -3 413t-9 312q240 0 415 2t310 6l-66 -145q-36 4 -83 6t-154 2l-187 -1q-2 -12 -3 -35t-1 -89v-146v-241h96q107 0 203.5 1.5t183.5 3.5l-67 -138q-52 3 -95 4.5t-79 1.5h-242v-383q0 -78 1 -107t3 -46q22 -2 45.5 -2.5t67.5 -0.5h98 q130 0 189.5 2.5t105.5 7.5l-70 -155q-89 5 -211 7.5t-270 2.5h-190zM148 1747q27 24 57.5 54.5t66.5 72.5q30 -34 62 -66t65 -61q-37 -33 -68 -63.5t-59 -61.5q-29 34 -60 65t-64 60zM531 1747q27 24 57.5 54.5t66.5 72.5q30 -34 62 -66t65 -61q-37 -33 -68 -63.5 t-59 -61.5q-29 34 -60 65t-64 60z" />
<glyph unicode="&#xcc;" horiz-adv-x="508" d="M4 1940h178l209 -350h-106zM127 -10q7 159 10.5 339.5t3.5 387.5q0 205 -3.5 385t-10.5 340l251 8q-6 -156 -9.5 -335.5t-3.5 -389.5t3.5 -389.5t10.5 -335.5z" />
<glyph unicode="&#xcd;" horiz-adv-x="508" d="M117 1590l209 350h178l-281 -350h-106zM127 -10q7 159 10.5 339.5t3.5 387.5q0 205 -3.5 385t-10.5 340l251 8q-6 -156 -9.5 -335.5t-3.5 -389.5t3.5 -389.5t10.5 -335.5z" />
<glyph unicode="&#xce;" horiz-adv-x="508" d="M-29 1633l228 290h108l228 -290l-138 -27l-143 207l-143 -207zM127 -10q7 159 10.5 339.5t3.5 387.5q0 205 -3.5 385t-10.5 340l251 8q-6 -156 -9.5 -335.5t-3.5 -389.5t3.5 -389.5t10.5 -335.5z" />
<glyph unicode="&#xcf;" horiz-adv-x="508" d="M-63 1747q27 24 57.5 54.5t66.5 72.5q30 -34 62 -66t65 -61q-37 -33 -68 -63.5t-59 -61.5q-29 34 -60 65t-64 60zM127 -10q7 159 10.5 339.5t3.5 387.5q0 205 -3.5 385t-10.5 340l251 8q-6 -156 -9.5 -335.5t-3.5 -389.5t3.5 -389.5t10.5 -335.5zM320 1747 q27 24 57.5 54.5t66.5 72.5q30 -34 62 -66t65 -61q-37 -33 -68 -63.5t-59 -61.5q-29 34 -60 65t-64 60z" />
<glyph unicode="&#xd0;" horiz-adv-x="1352" d="M0 688v80h127q0 175 -3 344t-9 330h32h66q68 0 189.5 4t177.5 4q335 0 522.5 -161.5t187.5 -448.5q0 -204 -82 -376.5t-254 -328.5q-76 -69 -183 -107t-222 -38q-25 0 -107.5 5t-140.5 5h-186q6 141 9 303.5t3 384.5h-127zM346 688q0 -153 1 -291t3 -247 q62 -14 116.5 -20.5t104.5 -6.5q275 0 400 115t125 370q0 344 -181 534.5t-507 190.5q-23 0 -35 -0.5t-23 -1.5q-2 -142 -3 -280.5t-1 -282.5h328v-80h-328z" />
<glyph unicode="&#xd1;" horiz-adv-x="1337" d="M66 1399l215 80q83 -124 194.5 -285t245.5 -352l321 -459v770q0 70 -1 144.5t-3 156.5l127 12q-2 -74 -3 -139t-1 -129v-901q0 -46 6 -116t17 -156l-131 -41q-99 161 -312 466l-24 35l-436 625v-354q0 -70 3.5 -274t10.5 -482l-145 -10q6 325 9 528t3 283v473zM379 1649 q21 91 71.5 138.5t125.5 47.5q16 0 31 -2.5t30 -7.5l79 -27q17 -5 32 -7.5t28 -2.5q36 0 60.5 17.5t36.5 52.5h88q-24 -93 -75.5 -143t-123.5 -50q-19 0 -34.5 2.5t-31.5 8.5l-79 26q-15 5 -28.5 7.5t-24.5 2.5q-35 0 -58.5 -15t-38.5 -48h-88z" />
<glyph unicode="&#xd2;" horiz-adv-x="1446" d="M61 631q0 218 79.5 380t260.5 312q97 79 190.5 117.5t188.5 38.5q99 0 191.5 -32.5t163.5 -92.5q121 -104 185 -253t64 -325q0 -167 -63 -314.5t-182 -258.5q-139 -130 -250 -186t-225 -56q-265 0 -434 187t-169 483zM240 772q0 -268 162.5 -445t404.5 -177h4 q102 0 180.5 28t104.5 72q43 74 65.5 169.5t22.5 201.5q0 303 -150.5 486t-398.5 183q-99 0 -179 -28t-108 -70q-49 -74 -78.5 -188t-29.5 -232zM473 1940h178l209 -350h-106z" />
<glyph unicode="&#xd3;" horiz-adv-x="1446" d="M61 631q0 218 79.5 380t260.5 312q97 79 190.5 117.5t188.5 38.5q99 0 191.5 -32.5t163.5 -92.5q121 -104 185 -253t64 -325q0 -167 -63 -314.5t-182 -258.5q-139 -130 -250 -186t-225 -56q-265 0 -434 187t-169 483zM240 772q0 -268 162.5 -445t404.5 -177h4 q102 0 180.5 28t104.5 72q43 74 65.5 169.5t22.5 201.5q0 303 -150.5 486t-398.5 183q-99 0 -179 -28t-108 -70q-49 -74 -78.5 -188t-29.5 -232zM586 1590l209 350h178l-281 -350h-106z" />
<glyph unicode="&#xd4;" horiz-adv-x="1446" d="M61 631q0 218 79.5 380t260.5 312q97 79 190.5 117.5t188.5 38.5q99 0 191.5 -32.5t163.5 -92.5q121 -104 185 -253t64 -325q0 -167 -63 -314.5t-182 -258.5q-139 -130 -250 -186t-225 -56q-265 0 -434 187t-169 483zM240 772q0 -268 162.5 -445t404.5 -177h4 q102 0 180.5 28t104.5 72q43 74 65.5 169.5t22.5 201.5q0 303 -150.5 486t-398.5 183q-99 0 -179 -28t-108 -70q-49 -74 -78.5 -188t-29.5 -232zM440 1633l228 290h108l228 -290l-138 -27l-143 207l-143 -207z" />
<glyph unicode="&#xd5;" horiz-adv-x="1446" d="M61 631q0 218 79.5 380t260.5 312q97 79 190.5 117.5t188.5 38.5q99 0 191.5 -32.5t163.5 -92.5q121 -104 185 -253t64 -325q0 -167 -63 -314.5t-182 -258.5q-139 -130 -250 -186t-225 -56q-265 0 -434 187t-169 483zM240 772q0 -268 162.5 -445t404.5 -177h4 q102 0 180.5 28t104.5 72q43 74 65.5 169.5t22.5 201.5q0 303 -150.5 486t-398.5 183q-99 0 -179 -28t-108 -70q-49 -74 -78.5 -188t-29.5 -232zM432 1649q21 91 71.5 138.5t125.5 47.5q16 0 31 -2.5t30 -7.5l79 -27q17 -5 32 -7.5t28 -2.5q36 0 60.5 17.5t36.5 52.5h88 q-24 -93 -75.5 -143t-123.5 -50q-19 0 -34.5 2.5t-31.5 8.5l-79 26q-15 5 -28.5 7.5t-24.5 2.5q-35 0 -58.5 -15t-38.5 -48h-88z" />
<glyph unicode="&#xd6;" horiz-adv-x="1446" d="M61 631q0 218 79.5 380t260.5 312q97 79 190.5 117.5t188.5 38.5q99 0 191.5 -32.5t163.5 -92.5q121 -104 185 -253t64 -325q0 -167 -63 -314.5t-182 -258.5q-139 -130 -250 -186t-225 -56q-265 0 -434 187t-169 483zM240 772q0 -268 162.5 -445t404.5 -177h4 q102 0 180.5 28t104.5 72q43 74 65.5 169.5t22.5 201.5q0 303 -150.5 486t-398.5 183q-99 0 -179 -28t-108 -70q-49 -74 -78.5 -188t-29.5 -232zM406 1747q27 24 57.5 54.5t66.5 72.5q30 -34 62 -66t65 -61q-37 -33 -68 -63.5t-59 -61.5q-29 34 -60 65t-64 60zM789 1747 q27 24 57.5 54.5t66.5 72.5q30 -34 62 -66t65 -61q-37 -33 -68 -63.5t-59 -61.5q-29 34 -60 65t-64 60z" />
<glyph unicode="&#xd7;" horiz-adv-x="1706" d="M293 141l469 469l-469 469l98 99l469 -469l469 469l98 -99l-469 -469l469 -469l-98 -96l-469 467l-469 -467z" />
<glyph unicode="&#xd8;" horiz-adv-x="1446" d="M61 631q0 128 29.5 238.5t91.5 215.5q104 176 271 285t327 109q99 0 188 -31.5t169 -93.5l116 164h86l-149 -215q95 -103 144.5 -237.5t49.5 -289.5q0 -149 -50.5 -288t-135.5 -228q-155 -160 -283 -229.5t-264 -69.5q-84 0 -164 26t-159 79l-152 -218h-88l184 263 q-105 94 -158 224.5t-53 295.5zM242 764q0 -129 43 -241t129 -208l581 834q-72 69 -164 105t-196 36q-99 0 -179 -28t-108 -70q-49 -76 -77.5 -190.5t-28.5 -237.5zM469 266q72 -58 158.5 -87t187.5 -29t178 28t103 72q42 74 65 169t23 199q0 149 -36 270.5t-104 203.5z" />
<glyph unicode="&#xd9;" horiz-adv-x="1294" d="M115 1442l245 8q-7 -179 -10.5 -400t-3.5 -497q0 -235 75 -328.5t257 -93.5q71 0 125.5 17t99.5 53q24 78 34.5 163t10.5 230v33q0 254 -3.5 455t-10.5 359l245 9q-7 -157 -10.5 -336.5t-3.5 -388.5t3.5 -388.5t11.5 -336.5l-246 -10q5 46 8 88t4 81q-113 -104 -206 -151 t-187 -47q-227 0 -326.5 130t-99.5 431v258q0 188 -3 348t-9 314zM397 1940h178l209 -350h-106z" />
<glyph unicode="&#xda;" horiz-adv-x="1294" d="M115 1442l245 8q-7 -179 -10.5 -400t-3.5 -497q0 -235 75 -328.5t257 -93.5q71 0 125.5 17t99.5 53q24 78 34.5 163t10.5 230v33q0 254 -3.5 455t-10.5 359l245 9q-7 -157 -10.5 -336.5t-3.5 -388.5t3.5 -388.5t11.5 -336.5l-246 -10q5 46 8 88t4 81q-113 -104 -206 -151 t-187 -47q-227 0 -326.5 130t-99.5 431v258q0 188 -3 348t-9 314zM510 1590l209 350h178l-281 -350h-106z" />
<glyph unicode="&#xdb;" horiz-adv-x="1294" d="M115 1442l245 8q-7 -179 -10.5 -400t-3.5 -497q0 -235 75 -328.5t257 -93.5q71 0 125.5 17t99.5 53q24 78 34.5 163t10.5 230v33q0 254 -3.5 455t-10.5 359l245 9q-7 -157 -10.5 -336.5t-3.5 -388.5t3.5 -388.5t11.5 -336.5l-246 -10q5 46 8 88t4 81q-113 -104 -206 -151 t-187 -47q-227 0 -326.5 130t-99.5 431v258q0 188 -3 348t-9 314zM364 1633l228 290h108l228 -290l-138 -27l-143 207l-143 -207z" />
<glyph unicode="&#xdc;" horiz-adv-x="1294" d="M115 1442l245 8q-7 -179 -10.5 -400t-3.5 -497q0 -235 75 -328.5t257 -93.5q71 0 125.5 17t99.5 53q24 78 34.5 163t10.5 230v33q0 254 -3.5 455t-10.5 359l245 9q-7 -157 -10.5 -336.5t-3.5 -388.5t3.5 -388.5t11.5 -336.5l-246 -10q5 46 8 88t4 81q-113 -104 -206 -151 t-187 -47q-227 0 -326.5 130t-99.5 431v258q0 188 -3 348t-9 314zM330 1747q27 24 57.5 54.5t66.5 72.5q30 -34 62 -66t65 -61q-37 -33 -68 -63.5t-59 -61.5q-29 34 -60 65t-64 60zM713 1747q27 24 57.5 54.5t66.5 72.5q30 -34 62 -66t65 -61q-37 -33 -68 -63.5t-59 -61.5 q-29 34 -60 65t-64 60z" />
<glyph unicode="&#xdd;" horiz-adv-x="991" d="M0 1421l233 39q80 -195 160 -377t160 -352q104 233 176 406t119 305l129 8q-93 -215 -186.5 -427.5t-190.5 -426.5v-125q0 -136 2.5 -250.5t7.5 -219.5l-239 -11q6 133 9 262.5t3 249.5v94q-66 154 -162.5 361.5t-220.5 463.5zM359 1590l209 350h178l-281 -350h-106z" />
<glyph unicode="&#xde;" horiz-adv-x="1071" d="M123 -10q7 159 10.5 339.5t3.5 387.5q0 205 -3.5 385t-10.5 339l247 9q-1 -53 -5.5 -136t-3.5 -110q18 3 40.5 4.5t65.5 1.5h51q245 0 370.5 -93.5t125.5 -276.5q0 -131 -67 -234.5t-216 -199.5q-76 -50 -141.5 -71.5t-138.5 -21.5q-43 0 -61.5 1t-31.5 3q0 -66 9 -248 q3 -46 4 -69zM356 459q49 -10 90.5 -14.5t77.5 -4.5q59 0 107 9t88 26q37 66 55.5 135t18.5 142q0 153 -107.5 243t-290.5 90q-6 0 -19.5 -1t-19.5 -1v-624z" />
<glyph unicode="&#xdf;" horiz-adv-x="1067" d="M55 854l54 90h69q2 92 16.5 158t43.5 117q19 35 46.5 66.5t59.5 57.5q80 67 140.5 101.5t97.5 34.5q113 0 197.5 -88.5t84.5 -212.5q0 -75 -36 -147t-115 -154q132 -31 203 -122t71 -229q0 -114 -43 -233t-86 -152q-104 -79 -204 -129.5t-144 -50.5q-9 0 -27.5 1.5 t-43.5 4.5l44 142q54 -13 91 -19t65 -6q5 0 14 1t13 1q60 70 91 154.5t31 179.5q0 160 -68 253t-183 93q-16 0 -34 -3t-38 -9l-16 53q103 38 169.5 79t100.5 87q6 19 9 40t3 42q0 124 -81.5 209.5t-196.5 85.5q-46 0 -62 -63.5t-16 -332.5q0 -191 1.5 -403.5t6.5 -550.5 l-209 -10q2 100 3 290t1 431v143h-123z" />
<glyph unicode="&#xe0;" horiz-adv-x="891" d="M57 227q0 148 122 244t313 96q27 0 53.5 -3t54.5 -9q0 11 1 29.5t1 27.5q0 118 -56.5 170t-185.5 52q-73 0 -136 -21.5t-115 -64.5l-25 22l182 191q50 10 93.5 15t82.5 5q181 0 269 -83.5t88 -254.5q0 -11 -5.5 -225t-5.5 -418l-194 -10l6 114q-38 -20 -102 -54 q-166 -89 -185 -89q-99 0 -177.5 79t-78.5 187zM236 348q0 -98 63 -161.5t162 -63.5q29 0 62.5 7t76.5 22v278q-61 23 -116 34t-103 11q-35 0 -63 -5t-54 -15q-14 -24 -21 -50t-7 -57zM244 1442h178l209 -350h-106z" />
<glyph unicode="&#xe1;" horiz-adv-x="891" d="M57 227q0 148 122 244t313 96q27 0 53.5 -3t54.5 -9q0 11 1 29.5t1 27.5q0 118 -56.5 170t-185.5 52q-73 0 -136 -21.5t-115 -64.5l-25 22l182 191q50 10 93.5 15t82.5 5q181 0 269 -83.5t88 -254.5q0 -11 -5.5 -225t-5.5 -418l-194 -10l6 114q-38 -20 -102 -54 q-166 -89 -185 -89q-99 0 -177.5 79t-78.5 187zM236 348q0 -98 63 -161.5t162 -63.5q29 0 62.5 7t76.5 22v278q-61 23 -116 34t-103 11q-35 0 -63 -5t-54 -15q-14 -24 -21 -50t-7 -57zM357 1092l209 350h178l-281 -350h-106z" />
<glyph unicode="&#xe2;" horiz-adv-x="891" d="M57 227q0 148 122 244t313 96q27 0 53.5 -3t54.5 -9q0 11 1 29.5t1 27.5q0 118 -56.5 170t-185.5 52q-73 0 -136 -21.5t-115 -64.5l-25 22l182 191q50 10 93.5 15t82.5 5q181 0 269 -83.5t88 -254.5q0 -11 -5.5 -225t-5.5 -418l-194 -10l6 114q-38 -20 -102 -54 q-166 -89 -185 -89q-99 0 -177.5 79t-78.5 187zM211 1135l228 290h108l228 -290l-138 -27l-143 207l-143 -207zM236 348q0 -98 63 -161.5t162 -63.5q29 0 62.5 7t76.5 22v278q-61 23 -116 34t-103 11q-35 0 -63 -5t-54 -15q-14 -24 -21 -50t-7 -57z" />
<glyph unicode="&#xe3;" horiz-adv-x="891" d="M57 227q0 148 122 244t313 96q27 0 53.5 -3t54.5 -9q0 11 1 29.5t1 27.5q0 118 -56.5 170t-185.5 52q-73 0 -136 -21.5t-115 -64.5l-25 22l182 191q50 10 93.5 15t82.5 5q181 0 269 -83.5t88 -254.5q0 -11 -5.5 -225t-5.5 -418l-194 -10l6 114q-38 -20 -102 -54 q-166 -89 -185 -89q-99 0 -177.5 79t-78.5 187zM203 1151q21 91 71.5 138.5t125.5 47.5q16 0 31 -2.5t30 -7.5l79 -27q17 -5 32 -7.5t28 -2.5q36 0 60.5 17.5t36.5 52.5h88q-24 -93 -75.5 -143t-123.5 -50q-19 0 -34.5 2.5t-31.5 8.5l-79 26q-15 5 -28.5 7.5t-24.5 2.5 q-35 0 -58.5 -15t-38.5 -48h-88zM236 348q0 -98 63 -161.5t162 -63.5q29 0 62.5 7t76.5 22v278q-61 23 -116 34t-103 11q-35 0 -63 -5t-54 -15q-14 -24 -21 -50t-7 -57z" />
<glyph unicode="&#xe4;" horiz-adv-x="891" d="M57 227q0 148 122 244t313 96q27 0 53.5 -3t54.5 -9q0 11 1 29.5t1 27.5q0 118 -56.5 170t-185.5 52q-73 0 -136 -21.5t-115 -64.5l-25 22l182 191q50 10 93.5 15t82.5 5q181 0 269 -83.5t88 -254.5q0 -11 -5.5 -225t-5.5 -418l-194 -10l6 114q-38 -20 -102 -54 q-166 -89 -185 -89q-99 0 -177.5 79t-78.5 187zM177 1249q27 24 57.5 54.5t66.5 72.5q30 -34 62 -66t65 -61q-37 -33 -68 -63.5t-59 -61.5q-29 34 -60 65t-64 60zM236 348q0 -98 63 -161.5t162 -63.5q29 0 62.5 7t76.5 22v278q-61 23 -116 34t-103 11q-35 0 -63 -5t-54 -15 q-14 -24 -21 -50t-7 -57zM560 1249q27 24 57.5 54.5t66.5 72.5q30 -34 62 -66t65 -61q-37 -33 -68 -63.5t-59 -61.5q-29 34 -60 65t-64 60z" />
<glyph unicode="&#xe5;" horiz-adv-x="891" d="M57 227q0 148 122 244t313 96q27 0 53.5 -3t54.5 -9q0 11 1 29.5t1 27.5q0 118 -56.5 170t-185.5 52q-73 0 -136 -21.5t-115 -64.5l-25 22l182 191q50 10 93.5 15t82.5 5q181 0 269 -83.5t88 -254.5q0 -11 -5.5 -225t-5.5 -418l-194 -10l6 114q-70 -34 -168 -88.5 t-119 -54.5q-99 0 -177.5 79t-78.5 187zM229 1296q0 104 72.5 175t177.5 71t176.5 -71t71.5 -175t-72 -176.5t-176 -72.5t-177 72.5t-73 176.5zM236 348q0 -98 63 -161.5t162 -63.5q29 0 62.5 7t76.5 22v278q-61 23 -116 34t-103 11q-35 0 -63 -5t-54 -15q-14 -24 -21 -50 t-7 -57zM336 1294q0 -60 41 -101.5t102 -41.5q60 0 101 41.5t41 101.5q0 61 -41 102.5t-101 41.5t-101.5 -42t-41.5 -102z" />
<glyph unicode="&#xe6;" horiz-adv-x="1399" d="M57 227q0 148 122 244t313 96q27 0 53.5 -3t54.5 -9q0 11 1 29.5t1 27.5q0 118 -56.5 170t-185.5 52q-73 0 -136 -21.5t-115 -64.5l-25 22l182 191q50 10 93.5 15t82.5 5q115 0 193.5 -36t120.5 -107q101 71 178.5 107t130.5 36q125 0 207 -105.5t82 -273.5v-27l-199 -96 h-362q16 -175 121 -272.5t274 -97.5q42 0 80.5 8.5t74.5 25.5l15 -24q-13 -9 -38 -25q-202 -133 -288 -133q-117 0 -207 48t-143 138l-91 -48q-255 -138 -278 -138q-99 0 -177.5 79t-78.5 187zM236 348q0 -98 63 -161.5t162 -63.5q39 0 88.5 13t114.5 40q-26 55 -39 116.5 t-13 131.5q-62 26 -120 38.5t-111 12.5q-35 0 -63 -5t-54 -15q-14 -24 -21 -50t-7 -57zM788 569h363v11q0 124 -61 198t-160 74q-17 0 -33.5 -3t-33.5 -9q-37 -51 -56 -119t-19 -152z" />
<glyph unicode="&#xe7;" horiz-adv-x="834" d="M47 406q0 91 25.5 177.5t93.5 207.5q10 16 19 26t18 14l231 130q16 9 44 14.5t59 5.5q86 0 152.5 -58t103.5 -165l-185 -94q-40 93 -94.5 138.5t-126.5 45.5q-14 0 -30 -3t-38 -9q-40 -72 -60.5 -149.5t-20.5 -158.5q0 -190 100.5 -308t261.5 -118q37 0 81.5 10t100.5 31 l11 -22q-150 -102 -209 -131t-103 -29q-192 0 -313 124t-121 321zM213 -336q84 -18 144.5 -26.5t101.5 -8.5q61 0 91 20.5t30 61.5q0 52 -33 75.5t-105 23.5q-20 0 -30.5 -0.5t-20.5 -1.5l-2 192h74v-106h22q112 0 169 -45t57 -132q0 -89 -62.5 -135.5t-183.5 -46.5 q-45 0 -105.5 10.5t-146.5 32.5v86z" />
<glyph unicode="&#xe8;" horiz-adv-x="834" d="M47 426q0 135 39 247.5t98 160.5q86 67 173 107t145 40q125 0 205.5 -105.5t80.5 -273.5v-27l-198 -96h-361q17 -175 121 -272.5t273 -97.5q42 0 81.5 8.5t75.5 25.5l12 -25q-15 -9 -43 -28q-196 -129 -280 -129q-193 0 -307.5 126t-114.5 339zM211 1442h178l209 -350 h-106zM225 569h361v11q0 124 -60 198t-159 74q-19 0 -36 -3t-34 -9q-36 -50 -54 -118t-18 -153z" />
<glyph unicode="&#xe9;" horiz-adv-x="834" d="M47 426q0 135 39 247.5t98 160.5q86 67 173 107t145 40q125 0 205.5 -105.5t80.5 -273.5v-27l-198 -96h-361q17 -175 121 -272.5t273 -97.5q42 0 81.5 8.5t75.5 25.5l12 -25q-15 -9 -43 -28q-196 -129 -280 -129q-193 0 -307.5 126t-114.5 339zM225 569h361v11 q0 124 -60 198t-159 74q-19 0 -36 -3t-34 -9q-36 -50 -54 -118t-18 -153zM324 1092l209 350h178l-281 -350h-106z" />
<glyph unicode="&#xea;" horiz-adv-x="834" d="M47 426q0 135 39 247.5t98 160.5q86 67 173 107t145 40q125 0 205.5 -105.5t80.5 -273.5v-27l-198 -96h-361q17 -175 121 -272.5t273 -97.5q42 0 81.5 8.5t75.5 25.5l12 -25q-15 -9 -43 -28q-196 -129 -280 -129q-193 0 -307.5 126t-114.5 339zM178 1135l228 290h108 l228 -290l-138 -27l-143 207l-143 -207zM225 569h361v11q0 124 -60 198t-159 74q-19 0 -36 -3t-34 -9q-36 -50 -54 -118t-18 -153z" />
<glyph unicode="&#xeb;" horiz-adv-x="834" d="M47 426q0 135 39 247.5t98 160.5q86 67 173 107t145 40q125 0 205.5 -105.5t80.5 -273.5v-27l-198 -96h-361q17 -175 121 -272.5t273 -97.5q42 0 81.5 8.5t75.5 25.5l12 -25q-15 -9 -43 -28q-196 -129 -280 -129q-193 0 -307.5 126t-114.5 339zM144 1249q27 24 57.5 54.5 t66.5 72.5q30 -34 62 -66t65 -61q-37 -33 -68 -63.5t-59 -61.5q-29 34 -60 65t-64 60zM225 569h361v11q0 124 -60 198t-159 74q-19 0 -36 -3t-34 -9q-36 -50 -54 -118t-18 -153zM527 1249q27 24 57.5 54.5t66.5 72.5q30 -34 62 -66t65 -61q-37 -33 -68 -63.5t-59 -61.5 q-29 34 -60 65t-64 60z" />
<glyph unicode="&#xec;" horiz-adv-x="408" d="M-45 1442h178l209 -350h-106zM100 -10q2 91 3 192t1 285t-1 285t-3 192l207 8q-2 -83 -3 -180.5t-1 -294.5t1 -295t3 -182z" />
<glyph unicode="&#xed;" horiz-adv-x="408" d="M68 1092l209 350h178l-281 -350h-106zM100 -10q2 91 3 192t1 285t-1 285t-3 192l207 8q-2 -83 -3 -180.5t-1 -294.5t1 -295t3 -182z" />
<glyph unicode="&#xee;" horiz-adv-x="408" d="M-78 1135l228 290h108l228 -290l-138 -27l-143 207l-143 -207zM100 -10q2 91 3 192t1 285t-1 285t-3 192l207 8q-2 -83 -3 -180.5t-1 -294.5t1 -295t3 -182z" />
<glyph unicode="&#xef;" horiz-adv-x="408" d="M-112 1249q27 24 57.5 54.5t66.5 72.5q30 -34 62 -66t65 -61q-37 -33 -68 -63.5t-59 -61.5q-29 34 -60 65t-64 60zM100 -10q2 91 3 192t1 285t-1 285t-3 192l207 8q-2 -83 -3 -180.5t-1 -294.5t1 -295t3 -182zM271 1249q27 24 57.5 54.5t66.5 72.5q30 -34 62 -66t65 -61 q-37 -33 -68 -63.5t-59 -61.5q-29 34 -60 65t-64 60z" />
<glyph unicode="&#xf0;" horiz-adv-x="963" d="M47 389q0 86 24 177.5t70 185.5l254 200q11 8 40.5 15.5t60.5 7.5q30 0 64 -6.5t73 -20.5q-59 71 -115.5 128.5t-111.5 101.5l-179 -129l-39 47l166 123q-63 50 -100.5 77t-69.5 47l154 136q30 -19 75 -53.5t105 -84.5l164 121l41 -47l-162 -119q178 -174 266 -351.5 t88 -358.5q0 -102 -25.5 -202.5t-76.5 -197.5l-233 -188q-24 -18 -58.5 -27.5t-79.5 -9.5q-178 0 -286.5 117.5t-108.5 310.5zM231 514q0 -187 87 -288t247 -101q33 0 59.5 6.5t51.5 20.5q26 48 39.5 122.5t13.5 167.5q0 183 -77.5 289.5t-209.5 106.5q-32 0 -64 -6.5 t-65 -18.5q-39 -38 -60.5 -115.5t-21.5 -183.5z" />
<glyph unicode="&#xf1;" horiz-adv-x="958" d="M90 -10q2 91 3 192t1 285t-1 285t-3 192l205 8q0 -38 -1 -81.5t-1 -49.5q68 51 131.5 89.5t124.5 66.5q2 0 6 1q31 3 45 3q59 0 111.5 -22.5t97.5 -67.5q30 -30 42.5 -79t12.5 -173v-27q0 -67 -1 -134.5l-1 -67.5q0 -55 1.5 -156.5t4.5 -252.5l-204 -11q2 73 3 174.5 t1 347.5q0 133 -9 180.5t-30 69.5q-28 29 -74 46t-98 17q-55 0 -77 -8t-34 -29q-31 -54 -44 -138.5t-13 -315.5q0 -66 1.5 -150t4.5 -184zM188 1151q21 91 71.5 138.5t125.5 47.5q16 0 31 -2.5t30 -7.5l79 -27q17 -5 32 -7.5t28 -2.5q36 0 60.5 17.5t36.5 52.5h88 q-24 -93 -75.5 -143t-123.5 -50q-19 0 -34.5 2.5t-31.5 8.5l-79 26q-15 5 -28.5 7.5t-24.5 2.5q-35 0 -58.5 -15t-38.5 -48h-88z" />
<glyph unicode="&#xf2;" horiz-adv-x="963" d="M47 389q0 86 24 177.5t70 185.5l254 200q13 11 54.5 20t89.5 9q178 0 277 -107.5t99 -300.5q0 -94 -26 -193t-76 -194l-233 -188q-24 -18 -58.5 -27.5t-79.5 -9.5q-178 0 -286.5 117.5t-108.5 310.5zM231 514q0 -187 87 -288t247 -101q33 0 59.5 6.5t51.5 20.5 q26 48 39.5 122.5t13.5 167.5q0 183 -77.5 289.5t-209.5 106.5q-32 0 -64 -6.5t-65 -18.5q-39 -38 -60.5 -115.5t-21.5 -183.5zM272 1442h178l209 -350h-106z" />
<glyph unicode="&#xf3;" horiz-adv-x="963" d="M47 389q0 86 24 177.5t70 185.5l254 200q13 11 54.5 20t89.5 9q178 0 277 -107.5t99 -300.5q0 -94 -26 -193t-76 -194l-233 -188q-24 -18 -58.5 -27.5t-79.5 -9.5q-178 0 -286.5 117.5t-108.5 310.5zM231 514q0 -187 87 -288t247 -101q33 0 59.5 6.5t51.5 20.5 q26 48 39.5 122.5t13.5 167.5q0 183 -77.5 289.5t-209.5 106.5q-32 0 -64 -6.5t-65 -18.5q-39 -38 -60.5 -115.5t-21.5 -183.5zM385 1092l209 350h178l-281 -350h-106z" />
<glyph unicode="&#xf4;" horiz-adv-x="963" d="M47 389q0 86 24 177.5t70 185.5l254 200q13 11 54.5 20t89.5 9q178 0 277 -107.5t99 -300.5q0 -94 -26 -193t-76 -194l-233 -188q-24 -18 -58.5 -27.5t-79.5 -9.5q-178 0 -286.5 117.5t-108.5 310.5zM231 514q0 -187 87 -288t247 -101q33 0 59.5 6.5t51.5 20.5 q26 48 39.5 122.5t13.5 167.5q0 183 -77.5 289.5t-209.5 106.5q-32 0 -64 -6.5t-65 -18.5q-39 -38 -60.5 -115.5t-21.5 -183.5zM239 1135l228 290h108l228 -290l-138 -27l-143 207l-143 -207z" />
<glyph unicode="&#xf5;" horiz-adv-x="963" d="M47 389q0 86 24 177.5t70 185.5l254 200q13 11 54.5 20t89.5 9q178 0 277 -107.5t99 -300.5q0 -94 -26 -193t-76 -194l-233 -188q-24 -18 -58.5 -27.5t-79.5 -9.5q-178 0 -286.5 117.5t-108.5 310.5zM231 514q0 -187 87 -288t247 -101q33 0 59.5 6.5t51.5 20.5 q26 48 39.5 122.5t13.5 167.5q0 183 -77.5 289.5t-209.5 106.5q-32 0 -64 -6.5t-65 -18.5q-39 -38 -60.5 -115.5t-21.5 -183.5zM231 1151q21 91 71.5 138.5t125.5 47.5q16 0 31 -2.5t30 -7.5l79 -27q17 -5 32 -7.5t28 -2.5q36 0 60.5 17.5t36.5 52.5h88q-24 -93 -75.5 -143 t-123.5 -50q-19 0 -34.5 2.5t-31.5 8.5l-79 26q-15 5 -28.5 7.5t-24.5 2.5q-35 0 -58.5 -15t-38.5 -48h-88z" />
<glyph unicode="&#xf6;" horiz-adv-x="963" d="M47 389q0 86 24 177.5t70 185.5l254 200q13 11 54.5 20t89.5 9q178 0 277 -107.5t99 -300.5q0 -94 -26 -193t-76 -194l-233 -188q-24 -18 -58.5 -27.5t-79.5 -9.5q-178 0 -286.5 117.5t-108.5 310.5zM205 1249q27 24 57.5 54.5t66.5 72.5q30 -34 62 -66t65 -61 q-37 -33 -68 -63.5t-59 -61.5q-29 34 -60 65t-64 60zM231 514q0 -187 87 -288t247 -101q33 0 59.5 6.5t51.5 20.5q26 48 39.5 122.5t13.5 167.5q0 183 -77.5 289.5t-209.5 106.5q-32 0 -64 -6.5t-65 -18.5q-39 -38 -60.5 -115.5t-21.5 -183.5zM588 1249q27 24 57.5 54.5 t66.5 72.5q30 -34 62 -66t65 -61q-37 -33 -68 -63.5t-59 -61.5q-29 34 -60 65t-64 60z" />
<glyph unicode="&#xf7;" horiz-adv-x="1706" d="M254 541v139h1198v-139h-1198zM729 242q0 51 37 88t88 37t88 -37t37 -88q0 -52 -36.5 -88.5t-88.5 -36.5q-53 0 -89 36t-36 89zM729 979q0 52 37 89.5t88 37.5t88 -37.5t37 -89.5q0 -51 -36.5 -88t-88.5 -37t-88.5 36.5t-36.5 88.5z" />
<glyph unicode="&#xf8;" horiz-adv-x="963" d="M37 -104l129 176q-58 53 -88.5 134.5t-30.5 182.5q0 87 23.5 177.5t70.5 185.5l254 200q13 11 54.5 20t89.5 9q71 0 128.5 -17.5t106.5 -54.5l90 125h70l-117 -162q50 -54 74 -127.5t24 -171.5q0 -92 -26 -191t-76 -196l-233 -188q-24 -18 -58.5 -27.5t-79.5 -9.5 q-62 0 -120 17.5t-115 54.5l-98 -137h-72zM231 518q0 -86 17 -153.5t49 -110.5l352 483q-44 50 -95.5 75.5t-111.5 25.5q-33 0 -64.5 -6t-64.5 -19q-39 -38 -60.5 -114t-21.5 -181zM336 209q43 -40 102.5 -62t126.5 -22q33 0 59.5 6.5t51.5 20.5q25 45 39 121t14 169 q0 68 -12.5 127.5t-38.5 112.5z" />
<glyph unicode="&#xf9;" horiz-adv-x="958" d="M90 944l205 8q-3 -96 -4.5 -227t-1.5 -297q0 -123 8.5 -173t30.5 -73q30 -30 76.5 -47.5t97.5 -17.5t73.5 8.5t34.5 30.5q33 56 46.5 144.5t13.5 309.5q0 72 -1.5 155t-4.5 179l204 8q-3 -121 -4.5 -238.5t-1.5 -236.5t1.5 -238.5t4.5 -237.5l-204 -11q0 32 0.5 65 t1.5 68q-72 -52 -136 -91t-123 -65q-9 -1 -18 -1.5t-27 -0.5q-138 0 -203 74.5t-65 232.5v260q0 124 -1 219.5t-3 192.5zM229 1442h178l209 -350h-106z" />
<glyph unicode="&#xfa;" horiz-adv-x="958" d="M90 944l205 8q-3 -96 -4.5 -227t-1.5 -297q0 -123 8.5 -173t30.5 -73q30 -30 76.5 -47.5t97.5 -17.5t73.5 8.5t34.5 30.5q33 56 46.5 144.5t13.5 309.5q0 72 -1.5 155t-4.5 179l204 8q-3 -121 -4.5 -238.5t-1.5 -236.5t1.5 -238.5t4.5 -237.5l-204 -11q0 32 0.5 65 t1.5 68q-72 -52 -136 -91t-123 -65q-9 -1 -18 -1.5t-27 -0.5q-138 0 -203 74.5t-65 232.5v260q0 124 -1 219.5t-3 192.5zM342 1092l209 350h178l-281 -350h-106z" />
<glyph unicode="&#xfb;" horiz-adv-x="958" d="M90 944l205 8q-3 -96 -4.5 -227t-1.5 -297q0 -123 8.5 -173t30.5 -73q30 -30 76.5 -47.5t97.5 -17.5t73.5 8.5t34.5 30.5q33 56 46.5 144.5t13.5 309.5q0 72 -1.5 155t-4.5 179l204 8q-3 -121 -4.5 -238.5t-1.5 -236.5t1.5 -238.5t4.5 -237.5l-204 -11q0 32 0.5 65 t1.5 68q-72 -52 -136 -91t-123 -65q-9 -1 -18 -1.5t-27 -0.5q-138 0 -203 74.5t-65 232.5v260q0 124 -1 219.5t-3 192.5zM196 1135l228 290h108l228 -290l-138 -27l-143 207l-143 -207z" />
<glyph unicode="&#xfc;" horiz-adv-x="958" d="M90 944l205 8q-3 -96 -4.5 -227t-1.5 -297q0 -123 8.5 -173t30.5 -73q30 -30 76.5 -47.5t97.5 -17.5t73.5 8.5t34.5 30.5q33 56 46.5 144.5t13.5 309.5q0 72 -1.5 155t-4.5 179l204 8q-3 -121 -4.5 -238.5t-1.5 -236.5t1.5 -238.5t4.5 -237.5l-204 -11q0 32 0.5 65 t1.5 68q-72 -52 -136 -91t-123 -65q-9 -1 -18 -1.5t-27 -0.5q-138 0 -203 74.5t-65 232.5v260q0 124 -1 219.5t-3 192.5zM162 1249q27 24 57.5 54.5t66.5 72.5q30 -34 62 -66t65 -61q-37 -33 -68 -63.5t-59 -61.5q-29 34 -60 65t-64 60zM545 1249q27 24 57.5 54.5t66.5 72.5 q30 -34 62 -66t65 -61q-37 -33 -68 -63.5t-59 -61.5q-29 34 -60 65t-64 60z" />
<glyph unicode="&#xfd;" horiz-adv-x="891" d="M0 952l217 29q79 -232 152.5 -421t136.5 -322l256 706l127 19q-143 -345 -280.5 -703t-270.5 -733l-148 -10q37 75 70 147t64 141l73 170q-100 260 -198.5 502.5t-198.5 474.5zM309 1092l209 350h178l-281 -350h-106z" />
<glyph unicode="&#xfe;" horiz-adv-x="948" d="M90 -483q2 102 3 280t1 682t-1 682.5t-3 279.5l209 9q-2 -64 -3.5 -216.5t-2.5 -393.5l225 137q8 2 16 3t25 1q139 0 240.5 -122t101.5 -298q0 -124 -38.5 -230.5t-125.5 -220.5q-11 -14 -44.5 -37t-82.5 -48q-64 -35 -99 -49.5t-54 -14.5q-25 0 -68.5 8.5t-99.5 24.5 q0 -169 5 -405q1 -43 1 -62zM287 371q0 -59 3 -194q1 -13 1 -19q74 -39 140 -58.5t122 -19.5q14 0 28 2.5t29 7.5q42 79 64 177t22 206q0 168 -73 270.5t-191 102.5q-11 0 -23.5 -1.5t-28.5 -5.5q-49 -52 -71 -159.5t-22 -308.5z" />
<glyph unicode="&#xff;" horiz-adv-x="891" d="M0 952l217 29q79 -232 152.5 -421t136.5 -322l256 706l127 19q-143 -345 -280.5 -703t-270.5 -733l-148 -10q37 75 70 147t64 141l73 170q-100 260 -198.5 502.5t-198.5 474.5zM129 1249q27 24 57.5 54.5t66.5 72.5q30 -34 62 -66t65 -61q-37 -33 -68 -63.5t-59 -61.5 q-29 34 -60 65t-64 60zM512 1249q27 24 57.5 54.5t66.5 72.5q30 -34 62 -66t65 -61q-37 -33 -68 -63.5t-59 -61.5q-29 34 -60 65t-64 60z" />
<glyph unicode="&#x152;" horiz-adv-x="1976" d="M61 631q0 215 83 383t257 309q101 81 192 118.5t187 37.5q114 0 213 -50t176 -147l-12 160q237 0 412 2t309 6l-67 -145q-37 4 -83.5 6t-152.5 2h-186q-3 -13 -4 -36t-1 -89v-146v-241h101q109 0 204.5 1.5t177.5 4.5l-67 -139q-51 3 -94.5 4.5t-79.5 1.5h-242v-383 q0 -78 1 -106.5t4 -47.5q22 -1 45 -1.5t67 -0.5h98q131 0 190.5 2.5t104.5 7.5l-69 -155q-89 5 -211.5 7.5t-270.5 2.5h-192l18 229q-129 -133 -256 -200.5t-249 -67.5q-265 0 -434 187t-169 483zM240 772q0 -268 163.5 -446.5t407.5 -178.5q103 0 181.5 29t105.5 74 q42 75 66 183.5t24 232.5q0 296 -136 464t-374 168q-94 0 -183 -24.5t-124 -54.5q-49 -45 -90 -176.5t-41 -270.5z" />
<glyph unicode="&#x153;" horiz-adv-x="1511" d="M47 389q0 86 24 177.5t70 185.5l254 200q13 11 54.5 20t89.5 9q105 0 183 -39t130 -117q101 77 184 116.5t142 39.5q125 0 206.5 -105.5t81.5 -273.5v-27l-198 -96h-363q17 -175 121.5 -272.5t273.5 -97.5q43 0 81.5 8.5t74.5 25.5l14 -24q-13 -9 -38 -25 q-202 -133 -287 -133q-122 0 -212 50.5t-151 152.5l-202 -166q-21 -18 -56.5 -27.5t-81.5 -9.5q-178 0 -286.5 117.5t-108.5 310.5zM231 514q0 -187 87 -288t247 -101q33 0 59.5 6.5t51.5 20.5q26 48 39.5 122.5t13.5 167.5q0 183 -77.5 289.5t-209.5 106.5q-32 0 -64 -6.5 t-65 -18.5q-39 -38 -60.5 -115.5t-21.5 -183.5zM903 569h361v11q0 124 -61 198t-161 74q-17 0 -33 -3t-34 -9q-36 -50 -54 -118t-18 -153z" />
<glyph unicode="&#x178;" horiz-adv-x="991" d="M0 1421l233 39q80 -195 160 -377t160 -352q104 233 176 406t119 305l129 8q-93 -215 -186.5 -427.5t-190.5 -426.5v-125q0 -136 2.5 -250.5t7.5 -219.5l-239 -11q6 133 9 262.5t3 249.5v94q-66 154 -162.5 361.5t-220.5 463.5zM179 1747q27 24 57.5 54.5t66.5 72.5 q30 -34 62 -66t65 -61q-37 -33 -68 -63.5t-59 -61.5q-29 34 -60 65t-64 60zM562 1747q27 24 57.5 54.5t66.5 72.5q30 -34 62 -66t65 -61q-37 -33 -68 -63.5t-59 -61.5q-29 34 -60 65t-64 60z" />
<glyph unicode="&#x2c6;" horiz-adv-x="1024" d="M229 1135l228 290h108l228 -290l-138 -27l-143 207l-143 -207z" />
<glyph unicode="&#x2dc;" horiz-adv-x="1024" d="M221 1151q21 91 71.5 138.5t125.5 47.5q16 0 31 -2.5t30 -7.5l79 -27q17 -5 32 -7.5t28 -2.5q36 0 60.5 17.5t36.5 52.5h88q-24 -93 -75.5 -143t-123.5 -50q-19 0 -34.5 2.5t-31.5 8.5l-79 26q-15 5 -28.5 7.5t-24.5 2.5q-35 0 -58.5 -15t-38.5 -48h-88z" />
<glyph unicode="&#x2000;" horiz-adv-x="986" />
<glyph unicode="&#x2001;" horiz-adv-x="1972" />
<glyph unicode="&#x2002;" horiz-adv-x="986" />
<glyph unicode="&#x2003;" horiz-adv-x="1972" />
<glyph unicode="&#x2004;" horiz-adv-x="657" />
<glyph unicode="&#x2005;" horiz-adv-x="493" />
<glyph unicode="&#x2006;" horiz-adv-x="328" />
<glyph unicode="&#x2007;" horiz-adv-x="328" />
<glyph unicode="&#x2008;" horiz-adv-x="246" />
<glyph unicode="&#x2009;" horiz-adv-x="394" />
<glyph unicode="&#x200a;" horiz-adv-x="109" />
<glyph unicode="&#x2010;" horiz-adv-x="502" d="M43 410l57 143h361l-58 -143h-360z" />
<glyph unicode="&#x2011;" horiz-adv-x="502" d="M43 410l57 143h361l-58 -143h-360z" />
<glyph unicode="&#x2012;" horiz-adv-x="502" d="M43 410l57 143h361l-58 -143h-360z" />
<glyph unicode="&#x2013;" horiz-adv-x="1024" d="M0 418v123h1024v-123h-1024z" />
<glyph unicode="&#x2014;" horiz-adv-x="2048" d="M0 418v123h2048v-123h-2048z" />
<glyph unicode="&#x2018;" horiz-adv-x="555" d="M152 1155q0 58 45.5 133t152.5 191l29 -25q-44 -53 -63 -92.5t-19 -73.5q0 -42 27.5 -80t93.5 -86l-131 -159q-70 44 -102.5 90.5t-32.5 101.5z" />
<glyph unicode="&#x2019;" horiz-adv-x="555" d="M135 1319l131 160q69 -44 102 -91.5t33 -103.5q0 -58 -45.5 -133t-152.5 -190l-27 24q44 54 63 93t19 73q0 41 -27.5 79t-95.5 89z" />
<glyph unicode="&#x201a;" horiz-adv-x="555" d="M135 82l131 162q69 -44 102 -91.5t33 -103.5q0 -58 -45.5 -133t-152.5 -190l-27 24q45 57 63.5 95.5t18.5 70.5q0 40 -26.5 77t-96.5 89z" />
<glyph unicode="&#x201c;" horiz-adv-x="920" d="M152 1155q0 58 45.5 133t152.5 191l29 -25q-44 -53 -63 -92.5t-19 -73.5q0 -42 27.5 -80t93.5 -86l-131 -159q-70 44 -102.5 90.5t-32.5 101.5zM518 1155q0 58 46 133t153 191l26 -25q-43 -53 -62 -92.5t-19 -73.5q0 -40 27 -78t95 -88l-131 -159q-70 44 -102.5 90.5 t-32.5 101.5z" />
<glyph unicode="&#x201d;" horiz-adv-x="920" d="M135 1319l131 160q69 -44 102 -91.5t33 -103.5q0 -58 -45.5 -133t-152.5 -190l-27 24q44 54 63 93t19 73q0 41 -27.5 79t-95.5 89zM502 1319l131 160q69 -44 102 -91.5t33 -103.5q0 -58 -46 -133t-153 -190l-28 24q43 54 62.5 93t19.5 73q0 42 -27.5 80t-93.5 88z" />
<glyph unicode="&#x201e;" horiz-adv-x="920" d="M135 82l131 162q69 -44 102 -91.5t33 -103.5q0 -58 -45.5 -133t-152.5 -190l-27 24q45 57 63.5 95.5t18.5 70.5q0 40 -26.5 77t-96.5 89zM502 82l131 162q69 -44 102 -91.5t33 -103.5q0 -58 -46 -133t-153 -190l-28 24q44 57 63 95.5t19 70.5q0 41 -26.5 78t-94.5 88z " />
<glyph unicode="&#x2022;" horiz-adv-x="1208" d="M307 762q0 123 87 209t210 86q122 0 208.5 -86.5t86.5 -208.5t-87.5 -209.5t-209.5 -87.5q-123 0 -209 87t-86 210z" />
<glyph unicode="&#x2026;" horiz-adv-x="2048" d="M200 102q36 30 70 65t69 77q33 -37 69 -73t73 -69q-37 -33 -72.5 -68.5t-69.5 -72.5q-41 45 -74 79t-65 62zM882 102q36 30 70 65t69 77q33 -37 69 -73t73 -69q-37 -33 -72.5 -68.5t-69.5 -72.5q-41 45 -74 79t-65 62zM1567 102q36 30 70 65t69 77q33 -37 69 -73t73 -69 q-37 -33 -72.5 -68.5t-69.5 -72.5q-41 45 -74 79t-65 62z" />
<glyph unicode="&#x202f;" horiz-adv-x="394" />
<glyph unicode="&#x2039;" horiz-adv-x="559" d="M74 420l358 416l41 -35l-242 -309l244 -275l-119 -108z" />
<glyph unicode="&#x203a;" horiz-adv-x="559" d="M80 725l121 111l282 -312l-358 -415l-43 32l244 312z" />
<glyph unicode="&#x205f;" horiz-adv-x="493" />
<glyph unicode="&#x20ac;" d="M20 545l19 67h129v33q0 52 3.5 97t10.5 85h-162l19 68h158q30 123 93.5 228.5t155.5 187.5q98 86 179.5 127t154.5 41q62 0 129.5 -22t137.5 -64l-144 -170q-55 34 -121.5 54.5t-122.5 20.5q-52 0 -121.5 -24t-91.5 -47q-41 -46 -68 -132t-36 -200h520l-18 -68h-506v-47 q0 -48 3.5 -89t10.5 -78l434 -1l-18 -67h-401q48 -183 164 -288t272 -105q68 0 122.5 20t116.5 70l31 -39q-151 -142 -234 -192t-149 -50q-221 0 -359 155.5t-159 428.5h-152z" />
<glyph unicode="&#x2122;" horiz-adv-x="1706" d="M242 1378v80h452v-80h-172v-458h-108v458h-172zM813 920v538h150l151 -385l141 385h150v-538h-98v444l-166 -444h-56l-174 444v-444h-98z" />
<glyph unicode="&#x25fc;" horiz-adv-x="980" d="M0 0v980h980v-980h-980z" />
<glyph unicode="&#xfb01;" horiz-adv-x="1042" d="M55 854l54 90h69q2 92 16.5 158t43.5 117q22 37 48.5 68.5t57.5 58.5q77 63 139 98t99 35q12 0 25 -1.5t25 -4.5l-89 -164q-29 6 -52.5 9t-44.5 3q-47 0 -58 -17t-11 -92v-92q0 -53 0.5 -94t1.5 -82h172l-49 -90h-123q0 -27 -1 -124t-1 -167q0 -152 1.5 -293.5 t4.5 -269.5l-209 -10q2 100 3 290t1 431v143h-123zM637 1217l145 165l146 -69l-146 -164zM688 -10q2 91 3 192t1 285q0 96 -1 202.5t-3 274.5l207 8q-2 -84 -3 -181.5t-1 -293.5q0 -197 1 -295t3 -182z" />
<glyph unicode="&#xfb02;" horiz-adv-x="1042" d="M55 854l54 90h69q2 92 16.5 158t43.5 117q22 37 48.5 68.5t57.5 58.5q77 63 139 98t99 35q12 0 25 -1.5t25 -4.5l-89 -164q-29 6 -52.5 9t-44.5 3q-47 0 -58 -17t-11 -92v-92q0 -53 0.5 -94t1.5 -82h172l-49 -90h-123q0 -27 -1 -124t-1 -167q0 -152 1.5 -293.5 t4.5 -269.5l-209 -10q2 100 3 290t1 431v143h-123zM688 -10q2 107 3 250.5t1 476.5q0 332 -1 474.5t-3 250.5l207 8q-2 -114 -3 -258.5t-1 -466.5t1 -466.5t3 -258.5z" />
</font>
</defs>
</svg>
