<svg xmlns="http://www.w3.org/2000/svg" viewBox="0 0 425.2 425.2"><defs><style>.cls-1{fill:#002ea7;}.cls-2{fill:#fff;}</style></defs><title>email</title><g id="Layer_2" data-name="Layer 2"><g id="Layer_1-2" data-name="Layer 1"><g id="background"><circle class="cls-1" cx="212.6" cy="212.6" r="212.6"/></g><g id="email"><path class="cls-2" d="M122.79,143.53c2.78-.61,5.66-1.65,8.44-1.65q74.46-.13,148.82-.09c4.79,0,9.66-.17,14.45.09,2.7.17,5.31,1.13,8.45,1.83-1.13,1.13-1.65,1.74-2.18,2.26q-38.65,38.79-77.24,77.67c-6.7,6.71-14.71,6.71-21.42.09q-38.66-38.79-77.5-77.41a18.1,18.1,0,0,0-2.09-1.57A3.3,3.3,0,0,0,122.79,143.53Z"/><path class="cls-2" d="M184.79,220c3.13,3.22,6.79,6.88,10.44,10.53,10.63,10.63,24.73,10.54,35.36-.08,3.48-3.49,7-7,10.45-10.37q30.56,30.57,61.13,61.22a15.59,15.59,0,0,1-8.54,2.18H132a17.49,17.49,0,0,1-9.41-2.44C143.34,260.83,163.89,240.54,184.79,220Z"/><path class="cls-2" d="M310,152.07c.44,2.17,1.31,4.79,1.31,7.31q.13,53.43,0,106.93c0,2.44-1,5-1.39,7.4l-61.31-61.3C268.82,192.64,289.28,172.44,310,152.07Z"/><path class="cls-2" d="M115.3,273.45c-.44-2.09-1.31-4.44-1.31-6.88q-.13-53.94,0-107.8c0-2.44,1-4.79,1.39-7.23,20.55,20.55,40.93,40.84,61.39,61.31Q146.33,242.88,115.3,273.45Z"/></g></g></g></svg>