<?xml version="1.0" encoding="utf-8"?>
<!-- Generator: Adobe Illustrator 23.0.0, SVG Export Plug-In . SVG Version: 6.00 Build 0)  -->
<svg version="1.1" id="Layer_1" xmlns="http://www.w3.org/2000/svg" xmlns:xlink="http://www.w3.org/1999/xlink" x="0px" y="0px"
	 viewBox="0 0 425.2 425.2" style="enable-background:new 0 0 425.2 425.2;" xml:space="preserve">
<style type="text/css">
	.st0{fill:#002EA7;}
	.st1{fill:#FFFFFF;}
</style>
<title>tumblr</title>
<g>
	<g id="background">
		<circle class="st0" cx="212.6" cy="212.6" r="212.6"/>
	</g>
	<g id="tumblr">
		<path class="st1" d="M221,121.8v8.3c0,10.6,0,21,0,31.6c0,1.7,0.6,2,2.2,2c12.5,0,25.1,0,37.6,0c1.8,0,2.2,0.5,2.2,2.2
			c-0.1,9.3-0.1,18.6,0,27.9c0,1.5-0.5,2-2,2c-12.4-0.1-24.7,0-37.1,0h-2.7v2c0,17.4,0,34.9,0,52.3c0,2.8,0.1,5.5,0.4,8.3
			c0.6,6,4.5,9.6,9.6,12c6.2,3.1,12.9,3.1,19.6,1.8c6.2-1.3,12.4-3.7,17.7-7.1c0.4-0.3,0.9-0.5,1.5-0.9c0,0.6,0.1,1.1,0.1,1.7
			c0,8.3,0,16.6,0,24.8c0.1,0.9-0.4,1.9-1.3,2.2c-8.8,3.9-17.7,7.1-27.4,8.4c-14.9,1.9-29.4,0.9-42.5-7.1c-7-4.2-12.7-9.7-15.4-17.7
			c-1.7-5.1-2-10.3-2-15.7c0-21,0-42.2,0-63.2v-1.9c-0.8,0-1.4-0.1-2.2-0.1c-6.9,0-13.6,0-20.5,0c-1.5,0-2-0.3-2-1.9
			c0.1-7.3,0-14.5,0-21.9c-0.1-1,0.5-2,1.5-2.3c6.1-2,12.1-4.3,17.3-8.2c9.6-7.3,15.3-17.1,18.1-28.7c0.8-3.2,1.3-6.5,1.8-9.7
			c0.1-0.9,0.4-1.4,1.4-1.4C204.7,121.8,212.8,121.8,221,121.8z"/>
	</g>
</g>
</svg>
